<svg width="99" height="100" viewBox="0 0 99 100" fill="none" xmlns="http://www.w3.org/2000/svg">
<g filter="url(#filter0_d)">
<path d="M49.2515 3C29.1421 3 11.9718 15.9937 5.62964 33.9375H93.1828C86.6859 15.9937 69.5156 3 49.2515 3Z" fill="#F9F9F9"/>
<path d="M49.2515 95.8125C69.5156 95.8125 86.6859 82.8188 93.0281 64.875H5.62964C11.9718 82.9734 29.1421 95.8125 49.2515 95.8125Z" fill="#ED4C5C"/>
<path d="M5.62969 33.9375C3.92813 38.7328 3 43.9922 3 49.4062C3 54.8203 3.92813 60.0797 5.62969 64.875H93.1828C94.8844 60.0797 95.8125 54.8203 95.8125 49.4062C95.8125 43.9922 94.8844 38.7328 93.1828 33.9375H5.62969Z" fill="#428BC1"/>
</g>
<defs>
<filter id="filter0_d" x="-2" y="0" width="103" height="103" filterUnits="userSpaceOnUse" color-interpolation-filters="sRGB">
<feFlood flood-opacity="0" result="BackgroundImageFix"/>
<feColorMatrix in="SourceAlpha" type="matrix" values="0 0 0 0 0 0 0 0 0 0 0 0 0 0 0 0 0 0 127 0"/>
<feOffset dy="2"/>
<feGaussianBlur stdDeviation="1"/>
<feColorMatrix type="matrix" values="0 0 0 0 0 0 0 0 0 0 0 0 0 0 0 0 0 0 0.25 0"/>
<feBlend mode="normal" in2="BackgroundImageFix" result="effect1_dropShadow"/>
<feBlend mode="normal" in="SourceGraphic" in2="effect1_dropShadow" result="shape"/>
</filter>
</defs>
</svg>
