<svg width="103" height="103" viewBox="0 0 103 103" fill="none" xmlns="http://www.w3.org/2000/svg">
<g filter="url(#filter0_d)">
<path d="M51.4062 95.9062C77.0357 95.9062 97.8125 75.1295 97.8125 49.5C97.8125 23.8705 77.0357 3.09375 51.4062 3.09375C25.7768 3.09375 5 23.8705 5 49.5C5 75.1295 25.7768 95.9062 51.4062 95.9062Z" fill="#F42F4C"/>
<path d="M51.75 60.3281L67.0641 71.1562L61.3406 53.5219L76.5 42.075H57.6281L51.75 24.75L46.0266 42.075H27L42.1594 53.5219L36.4359 71.1562L51.75 60.3281Z" fill="#FFE62E"/>
<path d="M51.5 98C24.7142 98 3 76.2858 3 49.5H1C1 77.3904 23.6096 100 51.5 100V98ZM100 49.5C100 76.2858 78.2858 98 51.5 98V100C79.3904 100 102 77.3904 102 49.5H100ZM51.5 1C78.2858 1 100 22.7142 100 49.5H102C102 21.6096 79.3904 -1 51.5 -1V1ZM51.5 -1C23.6096 -1 1 21.6096 1 49.5H3C3 22.7142 24.7142 1 51.5 1V-1Z" fill="black"/>
</g>
<defs>
<filter id="filter0_d" x="0" y="0" width="103" height="103" filterUnits="userSpaceOnUse" color-interpolation-filters="sRGB">
<feFlood flood-opacity="0" result="BackgroundImageFix"/>
<feColorMatrix in="SourceAlpha" type="matrix" values="0 0 0 0 0 0 0 0 0 0 0 0 0 0 0 0 0 0 127 0"/>
<feOffset dy="2"/>
<feGaussianBlur stdDeviation="1"/>
<feColorMatrix type="matrix" values="0 0 0 0 0 0 0 0 0 0 0 0 0 0 0 0 0 0 0.25 0"/>
<feBlend mode="normal" in2="BackgroundImageFix" result="effect1_dropShadow"/>
<feBlend mode="normal" in="SourceGraphic" in2="effect1_dropShadow" result="shape"/>
</filter>
</defs>
</svg>
