<svg width="103" height="103" viewBox="0 0 103 103" fill="none" xmlns="http://www.w3.org/2000/svg">
<g filter="url(#filter0_d)">
<path d="M36.0312 93.2766V71.9297L20.0984 83.6859C24.5843 87.8625 29.9984 91.1109 36.0312 93.2766" fill="#2A5F9E"/>
<path d="M66.9688 93.2769C73.0016 91.1113 78.4156 87.8629 82.9016 83.6863L66.9688 71.7754V93.2769Z" fill="#2A5F9E"/>
<path d="M7.72339 64.9688C8.18745 66.5156 8.8062 67.9078 9.57964 69.4547L15.6125 64.9688H7.72339Z" fill="#2A5F9E"/>
<path d="M87.3875 64.9688L93.4203 69.4547C94.039 68.0625 94.6578 66.5156 95.2765 64.9688H87.3875Z" fill="#2A5F9E"/>
<path d="M38.3517 58.7812H6.02197C6.48604 60.9469 7.10479 62.9578 7.72354 64.9688H15.6126L9.57979 69.4547C10.8173 72.0844 12.2095 74.4047 13.911 76.725L29.8438 64.9688H36.0313V68.0625L17.9329 81.3656L20.0985 83.5312L36.0313 71.9297V93.2766C38.0423 94.05 40.0532 94.5141 42.2188 94.9781V58.7812H38.3517Z" fill="white"/>
<path d="M96.9781 58.7812H60.7812V94.9781C62.9469 94.5141 64.9578 93.8953 66.9688 93.2766V71.9297L82.9016 83.5312C85.0672 81.5203 86.9234 79.3547 88.7797 77.0344L72.2281 64.9688H82.7469L92.1828 71.9297C92.6469 71.1562 93.1109 70.2281 93.4203 69.4547L87.3875 64.9688H95.2766C95.8953 62.9578 96.5141 60.9469 96.9781 58.7812" fill="white"/>
<path d="M13.9109 76.7246C15.1484 78.4262 16.3859 79.9731 17.7781 81.5199L36.0312 68.2168V65.123H29.8437L13.9109 76.7246Z" fill="#ED4C5C"/>
<path d="M72.3828 64.9688L88.9344 77.0344C89.5531 76.2609 90.0172 75.4875 90.6359 74.7141C90.7906 74.5594 90.7906 74.4047 90.9453 74.4047C91.4094 73.6312 92.0281 72.7031 92.4922 71.9297L82.7469 64.9688H72.3828Z" fill="#ED4C5C"/>
<path d="M66.9688 5.72363V27.0705L82.9016 15.3143C78.4156 11.1377 73.0016 7.88926 66.9688 5.72363Z" fill="#2A5F9E"/>
<path d="M36.0312 5.72363C29.9984 7.88926 24.5843 11.1377 20.0984 15.3143L36.0312 27.2252V5.72363Z" fill="#2A5F9E"/>
<path d="M95.2765 34.0318C94.8124 32.485 94.1937 31.0928 93.4203 29.5459L87.3875 34.0318H95.2765" fill="#2A5F9E"/>
<path d="M15.6125 34.0318L9.57964 29.5459C8.96089 31.0928 8.34214 32.485 7.72339 34.0318H15.6125Z" fill="#2A5F9E"/>
<path d="M64.6484 40.2184H96.8234C96.3594 38.0527 95.7406 36.0418 95.1219 34.0309H87.2328L93.2656 29.5449C92.0281 26.9152 90.6359 24.5949 88.9344 22.2746L73.1562 34.0309H66.9687V30.9371L85.0672 17.634L82.9016 15.4684L66.9687 27.0699V5.72305C64.9578 4.94961 62.9469 4.48555 60.7812 4.02148V40.2184H64.6484Z" fill="white"/>
<path d="M6.02197 40.2184H42.2188V4.02148C40.0532 4.48555 38.0423 5.1043 36.0313 5.72305V27.0699L20.0985 15.4684C17.9329 17.4793 16.0767 19.6449 14.2204 21.9652L30.772 34.0309H20.2532L10.8173 27.0699C10.3532 27.8434 9.88916 28.7715 9.57979 29.5449L15.6126 34.0309H7.72354C7.10479 36.0418 6.48604 38.0527 6.02197 40.2184Z" fill="white"/>
<path d="M89.0891 22.2748C87.8516 20.5732 86.6141 19.0264 85.2219 17.4795L66.9688 30.7826V33.8764H73.1562L89.0891 22.2748" fill="#ED4C5C"/>
<path d="M30.6173 34.0314L14.2204 21.9658C13.6017 22.7393 13.1376 23.5127 12.5188 24.2861C12.3642 24.4408 12.3642 24.5955 12.2095 24.5955C11.7454 25.3689 11.1267 26.2971 10.6626 27.0705L20.0985 34.0314H30.6173Z" fill="#ED4C5C"/>
<path d="M96.9781 40.2188H60.7812V4.02187C57.8422 3.40312 54.7484 3.09375 51.5 3.09375C48.2516 3.09375 45.1578 3.40312 42.2188 4.02187V40.2188H6.02187C5.40312 43.1578 5.09375 46.2516 5.09375 49.5C5.09375 52.7484 5.40312 55.8422 6.02187 58.7812H42.2188V94.9781C45.1578 95.5969 48.2516 95.9062 51.5 95.9062C54.7484 95.9062 57.8422 95.5969 60.7812 94.9781V58.7812H96.9781C97.5969 55.8422 97.9062 52.7484 97.9062 49.5C97.9062 46.2516 97.5969 43.1578 96.9781 40.2188Z" fill="#ED4C5C"/>
<path d="M51.5 98C24.7142 98 3 76.2858 3 49.5H1C1 77.3904 23.6096 100 51.5 100V98ZM100 49.5C100 76.2858 78.2858 98 51.5 98V100C79.3904 100 102 77.3904 102 49.5H100ZM51.5 1C78.2858 1 100 22.7142 100 49.5H102C102 21.6096 79.3904 -1 51.5 -1V1ZM51.5 -1C23.6096 -1 1 21.6096 1 49.5H3C3 22.7142 24.7142 1 51.5 1V-1Z" fill="black"/>
</g>
<defs>
<filter id="filter0_d" x="0" y="0" width="103" height="103" filterUnits="userSpaceOnUse" color-interpolation-filters="sRGB">
<feFlood flood-opacity="0" result="BackgroundImageFix"/>
<feColorMatrix in="SourceAlpha" type="matrix" values="0 0 0 0 0 0 0 0 0 0 0 0 0 0 0 0 0 0 127 0"/>
<feOffset dy="2"/>
<feGaussianBlur stdDeviation="1"/>
<feColorMatrix type="matrix" values="0 0 0 0 0 0 0 0 0 0 0 0 0 0 0 0 0 0 0.25 0"/>
<feBlend mode="normal" in2="BackgroundImageFix" result="effect1_dropShadow"/>
<feBlend mode="normal" in="SourceGraphic" in2="effect1_dropShadow" result="shape"/>
</filter>
</defs>
</svg>
