<svg width="103" height="103" viewBox="0 0 103 103" fill="none" xmlns="http://www.w3.org/2000/svg">
<g filter="url(#filter0_d)">
<path d="M51.2515 3C31.1421 3 13.9718 15.9937 7.62964 33.9375H95.1828C88.6859 15.9937 71.5156 3 51.2515 3Z" fill="#F9F9F9"/>
<path d="M51.2515 95.8125C71.5156 95.8125 88.6859 82.8188 95.0281 64.875H7.62964C13.9718 82.9734 31.1421 95.8125 51.2515 95.8125Z" fill="#ED4C5C"/>
<path d="M7.62969 33.9375C5.92813 38.7328 5 43.9922 5 49.4062C5 54.8203 5.92813 60.0797 7.62969 64.875H95.1828C96.8844 60.0797 97.8125 54.8203 97.8125 49.4062C97.8125 43.9922 96.8844 38.7328 95.1828 33.9375H7.62969Z" fill="#428BC1"/>
<path d="M51.5 98C24.7142 98 3 76.2858 3 49.5H1C1 77.3904 23.6096 100 51.5 100V98ZM100 49.5C100 76.2858 78.2858 98 51.5 98V100C79.3904 100 102 77.3904 102 49.5H100ZM51.5 1C78.2858 1 100 22.7142 100 49.5H102C102 21.6096 79.3904 -1 51.5 -1V1ZM51.5 -1C23.6096 -1 1 21.6096 1 49.5H3C3 22.7142 24.7142 1 51.5 1V-1Z" fill="black"/>
</g>
<defs>
<filter id="filter0_d" x="0" y="0" width="103" height="103" filterUnits="userSpaceOnUse" color-interpolation-filters="sRGB">
<feFlood flood-opacity="0" result="BackgroundImageFix"/>
<feColorMatrix in="SourceAlpha" type="matrix" values="0 0 0 0 0 0 0 0 0 0 0 0 0 0 0 0 0 0 127 0"/>
<feOffset dy="2"/>
<feGaussianBlur stdDeviation="1"/>
<feColorMatrix type="matrix" values="0 0 0 0 0 0 0 0 0 0 0 0 0 0 0 0 0 0 0.25 0"/>
<feBlend mode="normal" in2="BackgroundImageFix" result="effect1_dropShadow"/>
<feBlend mode="normal" in="SourceGraphic" in2="effect1_dropShadow" result="shape"/>
</filter>
</defs>
</svg>
