<svg width="98" height="100" viewBox="0 0 98 100" fill="none" xmlns="http://www.w3.org/2000/svg">
<g opacity="0.5" filter="url(#filter0_d)">
<path d="M49.2518 3C29.1424 3 11.9721 15.9937 5.62988 33.9375H93.183C86.6861 15.9937 69.5158 3 49.2518 3Z" fill="white"/>
<path d="M49.2518 95.8174C69.5158 95.8174 86.6861 82.8236 93.0283 64.8799H5.62988C11.9721 82.9783 29.1424 95.8174 49.2518 95.8174Z" fill="#D1D1D1"/>
<path d="M5.62969 33.9404C3.92813 38.7357 3 43.9951 3 49.4092C3 54.8232 3.92813 60.0826 5.62969 64.8779H93.1828C94.8844 60.0826 95.8125 54.8232 95.8125 49.4092C95.8125 43.9951 94.8844 38.7357 93.1828 33.9404H5.62969Z" fill="#666666"/>
</g>
<defs>
<filter id="filter0_d" x="-2" y="0" width="102" height="103" filterUnits="userSpaceOnUse" color-interpolation-filters="sRGB">
<feFlood flood-opacity="0" result="BackgroundImageFix"/>
<feColorMatrix in="SourceAlpha" type="matrix" values="0 0 0 0 0 0 0 0 0 0 0 0 0 0 0 0 0 0 127 0"/>
<feOffset dy="2"/>
<feGaussianBlur stdDeviation="1"/>
<feColorMatrix type="matrix" values="0 0 0 0 0 0 0 0 0 0 0 0 0 0 0 0 0 0 0.25 0"/>
<feBlend mode="normal" in2="BackgroundImageFix" result="effect1_dropShadow"/>
<feBlend mode="normal" in="SourceGraphic" in2="effect1_dropShadow" result="shape"/>
</filter>
</defs>
</svg>
