<svg width="99" height="100" viewBox="0 0 99 100" fill="none" xmlns="http://www.w3.org/2000/svg">
<g filter="url(#filter0_d)">
<path d="M34.0312 93.2766V71.9297L18.0984 83.6859C22.5843 87.8625 27.9984 91.1109 34.0312 93.2766Z" fill="#2A5F9E"/>
<path d="M64.9688 93.2769C71.0016 91.1113 76.4156 87.8629 80.9016 83.6863L64.9688 71.7754V93.2769Z" fill="#2A5F9E"/>
<path d="M5.72339 64.9688C6.18745 66.5156 6.8062 67.9078 7.57964 69.4547L13.6125 64.9688H5.72339Z" fill="#2A5F9E"/>
<path d="M85.3875 64.9688L91.4203 69.4547C92.039 68.0625 92.6578 66.5156 93.2765 64.9688H85.3875Z" fill="#2A5F9E"/>
<path d="M36.3517 58.7812H4.02197C4.48604 60.9469 5.10479 62.9578 5.72354 64.9688H13.6126L7.57979 69.4547C8.81729 72.0844 10.2095 74.4047 11.911 76.725L27.8438 64.9688H34.0313V68.0625L15.9329 81.3656L18.0985 83.5312L34.0313 71.9297V93.2766C36.0423 94.05 38.0532 94.5141 40.2188 94.9781V58.7812H36.3517Z" fill="white"/>
<path d="M94.9781 58.7812H58.7812V94.9781C60.9469 94.5141 62.9578 93.8953 64.9688 93.2766V71.9297L80.9016 83.5312C83.0672 81.5203 84.9234 79.3547 86.7797 77.0344L70.2281 64.9688H80.7469L90.1828 71.9297C90.6469 71.1562 91.1109 70.2281 91.4203 69.4547L85.3875 64.9688H93.2766C93.8953 62.9578 94.5141 60.9469 94.9781 58.7812Z" fill="white"/>
<path d="M11.9109 76.7246C13.1484 78.4262 14.3859 79.9731 15.7781 81.5199L34.0312 68.2168V65.123H27.8437L11.9109 76.7246Z" fill="#ED4C5C"/>
<path d="M70.3828 64.9688L86.9344 77.0344C87.5531 76.2609 88.0172 75.4875 88.6359 74.7141C88.7906 74.5594 88.7906 74.4047 88.9453 74.4047C89.4094 73.6312 90.0281 72.7031 90.4922 71.9297L80.7469 64.9688H70.3828Z" fill="#ED4C5C"/>
<path d="M64.9688 5.72363V27.0705L80.9016 15.3143C76.4156 11.1377 71.0016 7.88926 64.9688 5.72363Z" fill="#2A5F9E"/>
<path d="M34.0312 5.72363C27.9984 7.88926 22.5843 11.1377 18.0984 15.3143L34.0312 27.2252V5.72363Z" fill="#2A5F9E"/>
<path d="M93.2765 34.0318C92.8124 32.485 92.1937 31.0928 91.4203 29.5459L85.3875 34.0318H93.2765Z" fill="#2A5F9E"/>
<path d="M13.6125 34.0318L7.57964 29.5459C6.96089 31.0928 6.34214 32.485 5.72339 34.0318H13.6125Z" fill="#2A5F9E"/>
<path d="M62.6484 40.2184H94.8234C94.3594 38.0527 93.7406 36.0418 93.1219 34.0309H85.2328L91.2656 29.5449C90.0281 26.9152 88.6359 24.5949 86.9344 22.2746L71.1562 34.0309H64.9687V30.9371L83.0672 17.634L80.9016 15.4684L64.9687 27.0699V5.72305C62.9578 4.94961 60.9469 4.48555 58.7812 4.02148V40.2184H62.6484Z" fill="white"/>
<path d="M4.02197 40.2184H40.2188V4.02148C38.0532 4.48555 36.0423 5.1043 34.0313 5.72305V27.0699L18.0985 15.4684C15.9329 17.4793 14.0767 19.6449 12.2204 21.9652L28.772 34.0309H18.2532L8.81728 27.0699C8.35322 27.8434 7.88916 28.7715 7.57979 29.5449L13.6126 34.0309H5.72354C5.10479 36.0418 4.48604 38.0527 4.02197 40.2184Z" fill="white"/>
<path d="M87.0891 22.2748C85.8516 20.5732 84.6141 19.0264 83.2219 17.4795L64.9688 30.7826V33.8764H71.1562L87.0891 22.2748Z" fill="#ED4C5C"/>
<path d="M28.6173 34.0314L12.2204 21.9658C11.6017 22.7393 11.1376 23.5127 10.5188 24.2861C10.3642 24.4408 10.3642 24.5955 10.2095 24.5955C9.74541 25.3689 9.12666 26.2971 8.6626 27.0705L18.0985 34.0314H28.6173Z" fill="#ED4C5C"/>
<path d="M94.9781 40.2188H58.7812V4.02187C55.8422 3.40312 52.7484 3.09375 49.5 3.09375C46.2516 3.09375 43.1578 3.40312 40.2188 4.02187V40.2188H4.02187C3.40312 43.1578 3.09375 46.2516 3.09375 49.5C3.09375 52.7484 3.40312 55.8422 4.02187 58.7812H40.2188V94.9781C43.1578 95.5969 46.2516 95.9062 49.5 95.9062C52.7484 95.9062 55.8422 95.5969 58.7812 94.9781V58.7812H94.9781C95.5969 55.8422 95.9062 52.7484 95.9062 49.5C95.9062 46.2516 95.5969 43.1578 94.9781 40.2188Z" fill="#ED4C5C"/>
</g>
<defs>
<filter id="filter0_d" x="-2" y="0" width="103" height="103" filterUnits="userSpaceOnUse" color-interpolation-filters="sRGB">
<feFlood flood-opacity="0" result="BackgroundImageFix"/>
<feColorMatrix in="SourceAlpha" type="matrix" values="0 0 0 0 0 0 0 0 0 0 0 0 0 0 0 0 0 0 127 0"/>
<feOffset dy="2"/>
<feGaussianBlur stdDeviation="1"/>
<feColorMatrix type="matrix" values="0 0 0 0 0 0 0 0 0 0 0 0 0 0 0 0 0 0 0.25 0"/>
<feBlend mode="normal" in2="BackgroundImageFix" result="effect1_dropShadow"/>
<feBlend mode="normal" in="SourceGraphic" in2="effect1_dropShadow" result="shape"/>
</filter>
</defs>
</svg>
