<svg width="32" height="27" viewBox="0 0 32 27" fill="none" xmlns="http://www.w3.org/2000/svg">
<g filter="url(#filter0_d)">
<path d="M7.66667 1H3C2.44867 1 2 1.50475 2 2.125V6.625C2 6.72446 2.03512 6.81984 2.09763 6.89016C2.16014 6.96049 2.24493 7 2.33333 7C2.42174 7 2.50652 6.96049 2.56904 6.89016C2.63155 6.81984 2.66667 6.72446 2.66667 6.625V2.125C2.66667 2.02554 2.70179 1.93016 2.7643 1.85983C2.82681 1.78951 2.91159 1.75 3 1.75H7.66667C7.75507 1.75 7.83986 1.71049 7.90237 1.64017C7.96488 1.56984 8 1.47446 8 1.375C8 1.27554 7.96488 1.18016 7.90237 1.10983C7.83986 1.03951 7.75507 1 7.66667 1V1Z" fill="black"/>
<path d="M29 1H24.3333C24.2449 1 24.1601 1.03951 24.0976 1.10983C24.0351 1.18016 24 1.27554 24 1.375C24 1.47446 24.0351 1.56984 24.0976 1.64017C24.1601 1.71049 24.2449 1.75 24.3333 1.75H29C29.0884 1.75 29.1732 1.78951 29.2357 1.85983C29.2982 1.93016 29.3333 2.02554 29.3333 2.125V6.625C29.3333 6.72446 29.3685 6.81984 29.431 6.89016C29.4935 6.96049 29.5783 7 29.6667 7C29.7551 7 29.8399 6.96049 29.9024 6.89016C29.9649 6.81984 30 6.72446 30 6.625V2.125C30 1.50475 29.5513 1 29 1Z" fill="black"/>
<path d="M29.6667 17C29.5783 17 29.4935 17.0395 29.431 17.1098C29.3685 17.1802 29.3333 17.2755 29.3333 17.375V21.875C29.3333 21.9745 29.2982 22.0698 29.2357 22.1402C29.1732 22.2105 29.0884 22.25 29 22.25H24.3333C24.2449 22.25 24.1601 22.2895 24.0976 22.3598C24.0351 22.4302 24 22.5255 24 22.625C24 22.7245 24.0351 22.8198 24.0976 22.8902C24.1601 22.9605 24.2449 23 24.3333 23H29C29.5513 23 30 22.4953 30 21.875V17.375C30 17.2755 29.9649 17.1802 29.9024 17.1098C29.8399 17.0395 29.7551 17 29.6667 17Z" fill="black"/>
<path d="M2.33333 17C2.24493 17 2.16014 17.0395 2.09763 17.1098C2.03512 17.1802 2 17.2755 2 17.375V21.875C2 22.4953 2.44867 23 3 23H7.66667C7.75507 23 7.83986 22.9605 7.90237 22.8902C7.96488 22.8198 8 22.7245 8 22.625C8 22.5255 7.96488 22.4302 7.90237 22.3598C7.83986 22.2895 7.75507 22.25 7.66667 22.25H3C2.91159 22.25 2.82681 22.2105 2.7643 22.1402C2.70179 22.0698 2.66667 21.9745 2.66667 21.875V17.375C2.66667 17.2755 2.63155 17.1802 2.56904 17.1098C2.50652 17.0395 2.42174 17 2.33333 17Z" fill="black"/>
<line x1="10" y1="11.5" x2="22" y2="11.5" stroke="black"/>
</g>
<defs>
<filter id="filter0_d" x="-2" y="0" width="36" height="28.381" filterUnits="userSpaceOnUse" color-interpolation-filters="sRGB">
<feFlood flood-opacity="0" result="BackgroundImageFix"/>
<feColorMatrix in="SourceAlpha" type="matrix" values="0 0 0 0 0 0 0 0 0 0 0 0 0 0 0 0 0 0 127 0"/>
<feOffset dy="2"/>
<feGaussianBlur stdDeviation="1"/>
<feColorMatrix type="matrix" values="0 0 0 0 0 0 0 0 0 0 0 0 0 0 0 0 0 0 0.25 0"/>
<feBlend mode="normal" in2="BackgroundImageFix" result="effect1_dropShadow"/>
<feBlend mode="normal" in="SourceGraphic" in2="effect1_dropShadow" result="shape"/>
</filter>
</defs>
</svg>
