<svg width="32" height="32" viewBox="0 0 32 32" fill="none" xmlns="http://www.w3.org/2000/svg">
<g clip-path="url(#clip0)">
<path d="M0 16C0 7.16344 7.16344 0 16 0C24.8366 0 32 7.16344 32 16C32 24.8366 24.8366 32 16 32C7.16344 32 0 24.8366 0 16Z" fill="#F1D6DB"/>
<path d="M16.0001 -0.0341797C7.15806 -0.0341797 -0.0339355 7.15782 -0.0339355 15.9998C-0.0339355 24.8418 7.15806 32.0338 16.0001 32.0338C24.8421 32.0338 32.0341 24.8418 32.0341 15.9998C32.0341 7.15782 24.8421 -0.0341797 16.0001 -0.0341797ZM16.0001 30.9658C7.74806 30.9658 1.03406 24.2518 1.03406 15.9998C1.03406 7.74782 7.74806 1.03382 16.0001 1.03382C24.2521 1.03382 30.9661 7.74782 30.9661 15.9998C30.9661 24.2518 24.2521 30.9658 16.0001 30.9658Z" fill="black"/>
<path d="M20.2641 8H12.5225C10.0246 8 8 10.0249 8 12.5225V20.2641C8 22.7621 10.0249 24.7867 12.5229 24.7867H20.2638C22.7617 24.7867 24.7867 22.7617 24.7867 20.2638V12.5225C24.7867 10.0246 22.7617 8 20.2638 8H20.2641Z" stroke="#0A1E63" stroke-miterlimit="10"/>
<path d="M16.3938 20.4459C18.6317 20.4459 20.4459 18.6317 20.4459 16.3938C20.4459 14.156 18.6317 12.3418 16.3938 12.3418C14.156 12.3418 12.3418 14.156 12.3418 16.3938C12.3418 18.6317 14.156 20.4459 16.3938 20.4459Z" stroke="#0A1E63" stroke-miterlimit="10"/>
<path d="M21.314 12.3409C21.7935 12.3409 22.1822 11.9522 22.1822 11.4727C22.1822 10.9932 21.7935 10.6045 21.314 10.6045C20.8345 10.6045 20.4458 10.9932 20.4458 11.4727C20.4458 11.9522 20.8345 12.3409 21.314 12.3409Z" fill="#0A1E63"/>
</g>
<defs>
<clipPath id="clip0">
<path d="M0 16C0 7.16344 7.16344 0 16 0C24.8366 0 32 7.16344 32 16C32 24.8366 24.8366 32 16 32C7.16344 32 0 24.8366 0 16Z" fill="white"/>
</clipPath>
</defs>
</svg>
