<svg width="32" height="32" viewBox="0 0 32 32" fill="none" xmlns="http://www.w3.org/2000/svg">
<g clip-path="url(#clip0)">
<path d="M16 -0.0340576C7.158 -0.0340576 -0.0339999 7.15794 -0.0339999 15.9999C-0.0339999 24.8419 7.158 32.0339 16 32.0339C24.842 32.0339 32.034 24.8419 32.034 15.9999C32.034 7.15794 24.842 -0.0340576 16 -0.0340576ZM16 30.9659C7.748 30.9659 1.034 24.2519 1.034 15.9999C1.034 7.74794 7.748 1.03394 16 1.03394C24.252 1.03394 30.966 7.74794 30.966 15.9999C30.966 24.2519 24.252 30.9659 16 30.9659Z" fill="black"/>
<path d="M20.2641 8H12.5225C10.0246 8 8 10.0249 8 12.5225V20.2641C8 22.7621 10.0249 24.7867 12.5229 24.7867H20.2638C22.7617 24.7867 24.7867 22.7617 24.7867 20.2638V12.5225C24.7867 10.0246 22.7617 8 20.2638 8H20.2641Z" stroke="#0A1E63" stroke-miterlimit="10"/>
<path d="M16.3937 20.4457C18.6316 20.4457 20.4457 18.6316 20.4457 16.3937C20.4457 14.1558 18.6316 12.3417 16.3937 12.3417C14.1558 12.3417 12.3417 14.1558 12.3417 16.3937C12.3417 18.6316 14.1558 20.4457 16.3937 20.4457Z" stroke="#0A1E63" stroke-miterlimit="10"/>
<path d="M21.3141 12.341C21.7936 12.341 22.1823 11.9523 22.1823 11.4728C22.1823 10.9933 21.7936 10.6046 21.3141 10.6046C20.8346 10.6046 20.4459 10.9933 20.4459 11.4728C20.4459 11.9523 20.8346 12.341 21.3141 12.341Z" fill="#0A1E63"/>
</g>
<defs>
<clipPath id="clip0">
<path d="M0 16C0 7.16344 7.16344 0 16 0C24.8366 0 32 7.16344 32 16C32 24.8366 24.8366 32 16 32C7.16344 32 0 24.8366 0 16Z" fill="white"/>
</clipPath>
</defs>
</svg>
