<svg width="32" height="32" viewBox="0 0 32 32" fill="none" xmlns="http://www.w3.org/2000/svg">
<g clip-path="url(#clip0)">
<path d="M16 -0.0340576C7.158 -0.0340576 -0.0340004 7.15794 -0.0340004 15.9999C-0.0340004 24.8419 7.158 32.0339 16 32.0339C24.842 32.0339 32.034 24.8419 32.034 15.9999C32.034 7.15794 24.842 -0.0340576 16 -0.0340576ZM16 30.9659C7.748 30.9659 1.034 24.2519 1.034 15.9999C1.034 7.74794 7.748 1.03394 16 1.03394C24.252 1.03394 30.966 7.74794 30.966 15.9999C30.966 24.2519 24.252 30.9659 16 30.9659Z" fill="black"/>
<path d="M21.851 10.505C21.1039 9.70076 20.1983 9.05998 19.1913 8.623C18.1843 8.18602 17.0977 7.96232 16 7.96599C14.95 7.96599 13.925 8.16799 12.953 8.56799C11.4764 9.16974 10.2131 10.1985 9.32465 11.5225C8.43622 12.8465 7.96315 14.4055 7.966 16C7.966 18.428 9.048 20.7 10.937 22.235C12.3689 23.3966 14.1561 24.0316 16 24.034C17.1577 24.0344 18.3015 23.7825 19.352 23.296C20.4238 22.8047 21.3739 22.0829 22.1346 21.1821C22.8954 20.2814 23.448 19.2239 23.753 18.085V18.084C23.939 17.384 24.034 16.683 24.034 16C24.0351 13.9567 23.254 11.9905 21.851 10.505ZM22.836 17.305C22.659 17.267 22.487 17.25 22.311 17.219C22.078 17.178 21.845 17.135 21.615 17.105C21.342 17.07 21.075 17.052 20.807 17.034C20.591 17.02 20.375 17.001 20.163 16.998C20.097 16.997 20.027 16.987 19.961 16.987C19.609 16.987 19.26 17.004 18.913 17.034C18.868 17.038 18.824 17.047 18.779 17.051C18.499 17.079 18.22 17.111 17.946 17.159C17.901 17.042 17.85 16.932 17.804 16.816C17.6196 16.3489 17.4276 15.8848 17.228 15.424C17.179 15.312 17.136 15.194 17.087 15.083C17.192 15.041 17.286 14.994 17.388 14.95C17.492 14.905 17.596 14.861 17.696 14.814C17.918 14.71 18.129 14.602 18.333 14.49C18.398 14.454 18.467 14.421 18.53 14.385C18.79 14.235 19.035 14.078 19.266 13.917C19.321 13.878 19.371 13.838 19.424 13.799C19.598 13.672 19.765 13.544 19.922 13.414C20.1828 13.1942 20.4337 12.963 20.674 12.721C20.8093 12.5824 20.9404 12.4396 21.067 12.293C21.091 12.265 21.119 12.237 21.142 12.209C21.2686 12.059 21.3906 11.9053 21.508 11.748C22.4538 12.9635 22.9668 14.4599 22.966 16C22.966 16.427 22.922 16.864 22.836 17.305ZM16 9.03399C17.796 9.03399 19.474 9.70599 20.772 10.936C20.758 10.957 20.746 10.976 20.731 10.996C20.693 11.049 20.651 11.103 20.611 11.156C20.4884 11.3179 20.3603 11.4757 20.227 11.629C19.9805 11.9083 19.717 12.1721 19.438 12.419C19.379 12.471 19.324 12.523 19.262 12.575C19.0726 12.7344 18.8764 12.8855 18.674 13.028L18.631 13.056C18.434 13.193 18.224 13.326 18.003 13.454C17.922 13.501 17.833 13.545 17.748 13.591C17.5834 13.6812 17.4159 13.7662 17.246 13.846C17.1363 13.8965 17.0256 13.9448 16.914 13.991C16.824 14.029 16.727 14.064 16.634 14.101C16.609 14.048 16.583 14.002 16.558 13.949C16.3567 13.5279 16.1483 13.1101 15.933 12.696L15.885 12.606C15.6958 12.245 15.5011 11.887 15.301 11.532L15.17 11.3C14.977 10.962 14.79 10.643 14.61 10.345L14.491 10.151C14.3387 9.90261 14.1837 9.65593 14.026 9.41099L13.978 9.33499C14.6334 9.13539 15.3148 9.03396 16 9.03399ZM12.961 9.73399L12.979 9.76099C13.3974 10.4013 13.7972 11.0536 14.178 11.717L14.244 11.834C14.431 12.162 14.623 12.513 14.818 12.879L14.93 13.089C15.137 13.483 15.346 13.9 15.556 14.335L15.601 14.429C15.269 14.522 14.943 14.623 14.589 14.69C14.535 14.7 14.479 14.707 14.425 14.717C13.351 14.907 12.179 14.975 10.925 14.927C10.828 14.923 10.734 14.923 10.635 14.918C10.1362 14.8865 9.63865 14.8388 9.143 14.775C9.33507 13.6925 9.78132 12.6712 10.4451 11.7948C11.1088 10.9184 11.9711 10.2121 12.961 9.73399ZM9.034 16L9.036 15.855C9.178 15.872 9.31 15.873 9.451 15.887C10.0573 15.9491 10.6657 15.9878 11.275 16.003C11.41 16.006 11.554 16.019 11.687 16.019H11.688C11.975 16.019 12.251 16.002 12.529 15.989C12.646 15.984 12.766 15.984 12.881 15.977C13.385 15.9441 13.8872 15.8877 14.386 15.808C14.512 15.788 14.631 15.76 14.754 15.737C15.127 15.667 15.489 15.584 15.84 15.487C15.913 15.467 15.993 15.457 16.064 15.435C16.115 15.548 16.164 15.663 16.214 15.778C16.4488 16.3145 16.6722 16.856 16.884 17.402C16.776 17.433 16.676 17.472 16.57 17.506C16.2146 17.6153 15.8656 17.7448 15.525 17.894C15.412 17.943 15.296 17.988 15.186 18.04C14.937 18.157 14.698 18.283 14.466 18.414C14.41 18.445 14.35 18.474 14.295 18.506C14.01 18.672 13.74 18.848 13.482 19.029C13.41 19.079 13.345 19.132 13.275 19.183C13.093 19.317 12.914 19.451 12.746 19.589C12.661 19.659 12.582 19.729 12.5 19.799C12.3595 19.9195 12.2215 20.0429 12.086 20.169C12.006 20.245 11.928 20.319 11.852 20.395C11.731 20.515 11.615 20.633 11.504 20.752C11.433 20.828 11.361 20.903 11.294 20.978L11.215 21.062C10.5252 20.4118 9.97583 19.6272 9.60074 18.7567C9.22565 17.8861 9.03278 16.9479 9.034 16ZM12.052 21.737L12.102 21.679C12.162 21.612 12.228 21.545 12.291 21.477C12.4643 21.2917 12.6441 21.1126 12.83 20.94C13.1588 20.6323 13.5051 20.3439 13.867 20.076C13.948 20.016 14.026 19.955 14.109 19.897C14.309 19.757 14.519 19.623 14.735 19.493C14.775 19.469 14.811 19.443 14.852 19.419C15.11 19.269 15.381 19.128 15.663 18.996C15.749 18.956 15.841 18.922 15.929 18.884C16.132 18.796 16.338 18.711 16.553 18.635C16.667 18.595 16.785 18.56 16.903 18.523C17.019 18.487 17.141 18.456 17.261 18.423C17.486 19.05 17.706 19.681 17.903 20.327L17.931 20.412C18.138 21.098 18.318 21.797 18.491 22.499C17.4362 22.9028 16.2992 23.0444 15.1776 22.9117C14.056 22.7789 12.9834 22.3758 12.052 21.737ZM19.486 22.023C19.3278 21.3968 19.1554 20.7743 18.969 20.156L18.949 20.083C18.7576 19.4506 18.5515 18.8228 18.331 18.2C18.476 18.177 18.62 18.15 18.767 18.133C18.889 18.119 19.011 18.103 19.134 18.094C19.491 18.067 19.852 18.056 20.22 18.064C20.261 18.065 20.301 18.061 20.342 18.063C20.755 18.077 21.174 18.117 21.599 18.175C21.714 18.191 21.831 18.215 21.947 18.234C22.145 18.267 22.346 18.311 22.546 18.353C21.9941 19.9008 20.9094 21.2018 19.486 22.023Z" fill="#0A1E63"/>
</g>
<defs>
<clipPath id="clip0">
<path d="M0 16C0 7.16344 7.16344 0 16 0C24.8366 0 32 7.16344 32 16C32 24.8366 24.8366 32 16 32C7.16344 32 0 24.8366 0 16Z" fill="white"/>
</clipPath>
</defs>
</svg>
