<svg width="32" height="32" viewBox="0 0 32 32" fill="none" xmlns="http://www.w3.org/2000/svg">
<g clip-path="url(#clip0)">
<path d="M0 16C0 7.16344 7.16344 0 16 0C24.8366 0 32 7.16344 32 16C32 24.8366 24.8366 32 16 32C7.16344 32 0 24.8366 0 16Z" fill="#F1D6DB"/>
<path d="M16.0001 -0.0341797C7.15806 -0.0341797 -0.0339355 7.15782 -0.0339355 15.9998C-0.0339355 24.8418 7.15806 32.0338 16.0001 32.0338C24.8421 32.0338 32.0341 24.8418 32.0341 15.9998C32.0341 7.15782 24.8421 -0.0341797 16.0001 -0.0341797ZM16.0001 30.9658C7.74806 30.9658 1.03406 24.2518 1.03406 15.9998C1.03406 7.74782 7.74806 1.03382 16.0001 1.03382C24.2521 1.03382 30.9661 7.74782 30.9661 15.9998C30.9661 24.2518 24.2521 30.9658 16.0001 30.9658Z" fill="black"/>
<path d="M21.8511 10.5049C21.1039 9.70064 20.1984 9.05985 19.1914 8.62288C18.1844 8.1859 17.0978 7.9622 16.0001 7.96586C14.9501 7.96586 13.9251 8.16786 12.9531 8.56786C11.4765 9.16962 10.2132 10.1984 9.32473 11.5224C8.43629 12.8464 7.96322 14.4054 7.96608 15.9999C7.96608 18.4279 9.04808 20.6999 10.9371 22.2349C12.369 23.3965 14.1562 24.0315 16.0001 24.0339C17.1577 24.0342 18.3016 23.7824 19.3521 23.2959C20.4238 22.8045 21.374 22.0828 22.1347 21.182C22.8955 20.2813 23.448 19.2237 23.7531 18.0849V18.0839C23.9391 17.3839 24.0341 16.6829 24.0341 15.9999C24.0351 13.9566 23.254 11.9904 21.8511 10.5049ZM22.8361 17.3049C22.6591 17.2669 22.4871 17.2499 22.3111 17.2189C22.0781 17.1779 21.8451 17.1349 21.6151 17.1049C21.3421 17.0699 21.0751 17.0519 20.8071 17.0339C20.5911 17.0199 20.3751 17.0009 20.1631 16.9979C20.0971 16.9969 20.0271 16.9869 19.9611 16.9869C19.6091 16.9869 19.2601 17.0039 18.9131 17.0339C18.8681 17.0379 18.8241 17.0469 18.7791 17.0509C18.4991 17.0789 18.2201 17.1109 17.9461 17.1589C17.9011 17.0419 17.8501 16.9319 17.8041 16.8159C17.6197 16.3488 17.4277 15.8847 17.2281 15.4239C17.1791 15.3119 17.1361 15.1939 17.0871 15.0829C17.1921 15.0409 17.2861 14.9939 17.3881 14.9499C17.4921 14.9049 17.5961 14.8609 17.6961 14.8139C17.9181 14.7099 18.1291 14.6019 18.3331 14.4899C18.3981 14.4539 18.4671 14.4209 18.5301 14.3849C18.7901 14.2349 19.0351 14.0779 19.2661 13.9169C19.3211 13.8779 19.3711 13.8379 19.4241 13.7989C19.5981 13.6719 19.7651 13.5439 19.9221 13.4139C20.1829 13.1941 20.4338 12.9629 20.6741 12.7209C20.8094 12.5822 20.9405 12.4395 21.0671 12.2929C21.0911 12.2649 21.1191 12.2369 21.1421 12.2089C21.2687 12.0589 21.3907 11.9052 21.5081 11.7479C22.4538 12.9634 22.9669 14.4598 22.9661 15.9999C22.9661 16.4269 22.9221 16.8639 22.8361 17.3049ZM16.0001 9.03386C17.7961 9.03386 19.4741 9.70586 20.7721 10.9359C20.7581 10.9569 20.7461 10.9759 20.7311 10.9959C20.6931 11.0489 20.6511 11.1029 20.6111 11.1559C20.4885 11.3178 20.3604 11.4756 20.2271 11.6289C19.9806 11.9082 19.7171 12.172 19.4381 12.4189C19.3791 12.4709 19.3241 12.5229 19.2621 12.5749C19.0727 12.7343 18.8765 12.8854 18.6741 13.0279L18.6311 13.0559C18.4341 13.1929 18.2241 13.3259 18.0031 13.4539C17.9221 13.5009 17.8331 13.5449 17.7481 13.5909C17.5834 13.681 17.416 13.7661 17.2461 13.8459C17.1364 13.8964 17.0257 13.9447 16.9141 13.9909C16.8241 14.0289 16.7271 14.0639 16.6341 14.1009C16.6091 14.0479 16.5831 14.0019 16.5581 13.9489C16.3567 13.5277 16.1484 13.11 15.9331 12.6959L15.8851 12.6059C15.6959 12.2449 15.5012 11.8869 15.3011 11.5319L15.1701 11.2999C14.9771 10.9619 14.7901 10.6429 14.6101 10.3449L14.4911 10.1509C14.3388 9.90249 14.1838 9.65581 14.0261 9.41086L13.9781 9.33486C14.6335 9.13527 15.3149 9.03384 16.0001 9.03386ZM12.9611 9.73386L12.9791 9.76086C13.3974 10.4012 13.7973 11.0535 14.1781 11.7169L14.2441 11.8339C14.4311 12.1619 14.6231 12.5129 14.8181 12.8789L14.9301 13.0889C15.1371 13.4829 15.3461 13.8999 15.5561 14.3349L15.6011 14.4289C15.2691 14.5219 14.9431 14.6229 14.5891 14.6899C14.5351 14.6999 14.4791 14.7069 14.4251 14.7169C13.3511 14.9069 12.1791 14.9749 10.9251 14.9269C10.8281 14.9229 10.7341 14.9229 10.6351 14.9179C10.1363 14.8864 9.63873 14.8387 9.14308 14.7749C9.33515 13.6924 9.7814 12.671 10.4451 11.7947C11.1089 10.9183 11.9712 10.212 12.9611 9.73386ZM9.03408 15.9999L9.03608 15.8549C9.17808 15.8719 9.31008 15.8729 9.45108 15.8869C10.0574 15.949 10.6658 15.9877 11.2751 16.0029C11.4101 16.0059 11.5541 16.0189 11.6871 16.0189H11.6881C11.9751 16.0189 12.2511 16.0019 12.5291 15.9889C12.6461 15.9839 12.7661 15.9839 12.8811 15.9769C13.3851 15.944 13.8873 15.8876 14.3861 15.8079C14.5121 15.7879 14.6311 15.7599 14.7541 15.7369C15.1271 15.6669 15.4891 15.5839 15.8401 15.4869C15.9131 15.4669 15.9931 15.4569 16.0641 15.4349C16.1151 15.5479 16.1641 15.6629 16.2141 15.7779C16.4489 16.3144 16.6723 16.8559 16.8841 17.4019C16.7761 17.4329 16.6761 17.4719 16.5701 17.5059C16.2146 17.6152 15.8657 17.7447 15.5251 17.8939C15.4121 17.9429 15.2961 17.9879 15.1861 18.0399C14.9371 18.1569 14.6981 18.2829 14.4661 18.4139C14.4101 18.4449 14.3501 18.4739 14.2951 18.5059C14.0101 18.6719 13.7401 18.8479 13.4821 19.0289C13.4101 19.0789 13.3451 19.1319 13.2751 19.1829C13.0931 19.3169 12.9141 19.4509 12.7461 19.5889C12.6611 19.6589 12.5821 19.7289 12.5001 19.7989C12.3596 19.9194 12.2216 20.0428 12.0861 20.1689C12.0061 20.2449 11.9281 20.3189 11.8521 20.3949C11.7311 20.5149 11.6151 20.6329 11.5041 20.7519C11.4331 20.8279 11.3611 20.9029 11.2941 20.9779L11.2151 21.0619C10.5253 20.4117 9.97591 19.6271 9.60082 18.7565C9.22573 17.886 9.03285 16.9478 9.03408 15.9999ZM12.0521 21.7369L12.1021 21.6789C12.1621 21.6119 12.2281 21.5449 12.2911 21.4769C12.4644 21.2916 12.6442 21.1125 12.8301 20.9399C13.1589 20.6322 13.5051 20.3437 13.8671 20.0759C13.9481 20.0159 14.0261 19.9549 14.1091 19.8969C14.3091 19.7569 14.5191 19.6229 14.7351 19.4929C14.7751 19.4689 14.8111 19.4429 14.8521 19.4189C15.1101 19.2689 15.3811 19.1279 15.6631 18.9959C15.7491 18.9559 15.8411 18.9219 15.9291 18.8839C16.1321 18.7959 16.3381 18.7109 16.5531 18.6349C16.6671 18.5949 16.7851 18.5599 16.9031 18.5229C17.0191 18.4869 17.1411 18.4559 17.2611 18.4229C17.4861 19.0499 17.7061 19.6809 17.9031 20.3269L17.9311 20.4119C18.1381 21.0979 18.3181 21.7969 18.4911 22.4989C17.4363 22.9027 16.2992 23.0443 15.1777 22.9115C14.0561 22.7788 12.9835 22.3757 12.0521 21.7369ZM19.4861 22.0229C19.3278 21.3967 19.1555 20.7742 18.9691 20.1559L18.9491 20.0829C18.7577 19.4505 18.5516 18.8227 18.3311 18.1999C18.4761 18.1769 18.6201 18.1499 18.7671 18.1329C18.8891 18.1189 19.0111 18.1029 19.1341 18.0939C19.4911 18.0669 19.8521 18.0559 20.2201 18.0639C20.2611 18.0649 20.3011 18.0609 20.3421 18.0629C20.7551 18.0769 21.1741 18.1169 21.5991 18.1749C21.7141 18.1909 21.8311 18.2149 21.9471 18.2339C22.1451 18.2669 22.3461 18.3109 22.5461 18.3529C21.9942 19.9007 20.9095 21.2017 19.4861 22.0229Z" fill="#0A1E63"/>
</g>
<defs>
<clipPath id="clip0">
<path d="M0 16C0 7.16344 7.16344 0 16 0C24.8366 0 32 7.16344 32 16C32 24.8366 24.8366 32 16 32C7.16344 32 0 24.8366 0 16Z" fill="white"/>
</clipPath>
</defs>
</svg>
