<svg width="32" height="32" viewBox="0 0 32 32" fill="none" xmlns="http://www.w3.org/2000/svg">
<g clip-path="url(#clip0)">
<path d="M16 -0.0340576C7.158 -0.0340576 -0.0340004 7.15794 -0.0340004 15.9999C-0.0340004 24.8419 7.158 32.0339 16 32.0339C24.842 32.0339 32.034 24.8419 32.034 15.9999C32.034 7.15794 24.842 -0.0340576 16 -0.0340576ZM16 30.9659C7.748 30.9659 1.034 24.2519 1.034 15.9999C1.034 7.74794 7.748 1.03394 16 1.03394C24.252 1.03394 30.966 7.74794 30.966 15.9999C30.966 24.2519 24.252 30.9659 16 30.9659Z" fill="black"/>
<g clip-path="url(#clip1)">
<path d="M16.3941 8.19996C16.0934 7.93335 15.5962 7.93335 15.2955 8.19996L6.12546 13.5377C6.08724 13.5599 6.05562 13.5913 6.03364 13.6288C6.01166 13.6663 6.00008 13.7087 6 13.7518V23.2167C6 23.6484 6.36601 24 6.81601 24H24.873C25.323 24 25.6891 23.6484 25.6891 23.2167V13.7518C25.689 13.7087 25.6774 13.6663 25.6554 13.6288C25.6334 13.5913 25.6018 13.5599 25.5636 13.5377L16.3941 8.19996ZM15.5874 8.61363C15.6052 8.60315 15.6217 8.59073 15.6366 8.57661C15.6639 8.55028 15.6963 8.52939 15.7319 8.51514C15.7675 8.50089 15.8057 8.49355 15.8443 8.49355C15.8828 8.49355 15.921 8.50089 15.9567 8.51514C15.9923 8.52939 16.0247 8.55028 16.0519 8.57661C16.0669 8.59061 16.0834 8.60302 16.1012 8.61363L25.0322 13.8128L18.5632 17.5323C18.5082 17.5681 18.4695 17.6228 18.455 17.6852C18.4405 17.7477 18.4513 17.8131 18.4851 17.8681C18.519 17.9231 18.5734 17.9635 18.6372 17.9811C18.7009 17.9986 18.7693 17.992 18.8281 17.9625L25.1763 14.316V23.1982L16.3967 17.5628C16.1177 17.3482 15.5703 17.3482 15.31 17.5503L6.51273 23.1957V14.316L12.8604 17.9625C12.9196 17.9965 12.9902 18.0064 13.0569 17.99C13.1236 17.9737 13.1809 17.9325 13.2161 17.8755C13.2513 17.8184 13.2615 17.7502 13.2446 17.6859C13.2277 17.6215 13.185 17.5663 13.1259 17.5323L6.65634 13.8128L15.5874 8.61363ZM24.7046 23.4998H6.98036L15.6154 17.9545C15.7051 17.8855 15.9845 17.886 16.0918 17.967L24.7046 23.4998Z" fill="#0A1E63" stroke="#0A1E63" stroke-width="0.25"/>
<path d="M9.36411 14.4963H22.3249C22.3937 14.4963 22.4596 14.47 22.5082 14.423C22.5568 14.3761 22.5842 14.3125 22.5842 14.2462C22.5842 14.1799 22.5568 14.1163 22.5082 14.0693C22.4596 14.0224 22.3937 13.9961 22.3249 13.9961H9.36411C9.29536 13.9961 9.22942 14.0224 9.18081 14.0693C9.1322 14.1163 9.10489 14.1799 9.10489 14.2462C9.10489 14.3125 9.1322 14.3761 9.18081 14.423C9.22942 14.47 9.29536 14.4963 9.36411 14.4963Z" fill="#0A1E63" stroke="#0A1E63" stroke-width="0.25"/>
</g>
</g>
<defs>
<clipPath id="clip0">
<path d="M0 16C0 7.16344 7.16344 0 16 0C24.8366 0 32 7.16344 32 16C32 24.8366 24.8366 32 16 32C7.16344 32 0 24.8366 0 16Z" fill="white"/>
</clipPath>
<clipPath id="clip1">
<rect width="19.6923" height="16" fill="white" transform="translate(6 8)"/>
</clipPath>
</defs>
</svg>
