<svg width="32" height="32" viewBox="0 0 32 32" fill="none" xmlns="http://www.w3.org/2000/svg">
<g clip-path="url(#clip0)">
<path d="M0 16C0 7.16344 7.16344 0 16 0C24.8366 0 32 7.16344 32 16C32 24.8366 24.8366 32 16 32C7.16344 32 0 24.8366 0 16Z" fill="#F1D6DB"/>
<path d="M19.5151 11.9521C18.8371 11.9521 18.3351 12.1231 17.9421 12.3391C17.8791 12.1151 17.6721 11.9511 17.4281 12.0001H14.4441C14.1491 11.9511 13.9101 12.1901 14.0011 12.5001V23.5001C13.9101 23.7801 14.1491 24.0201 14.4441 24.0001H17.4281C17.7231 24.0201 17.9621 23.7801 17.9621 23.4851L17.9611 16.8371C17.9601 16.8341 17.9491 16.5161 18.1501 16.2971C18.3111 16.1231 18.5881 16.0341 18.9711 16.0341C19.6091 16.0341 19.8931 16.2951 19.9991 16.8791V23.4851C19.8941 23.7801 20.1331 24.0201 20.4281 24.0001H23.5731C23.8681 24.0201 24.1071 23.7801 24.0011 23.4851V16.6571C24.1061 13.1851 21.6331 11.9521 19.5151 11.9521ZM23.0381 23.0001H20.9621V16.8791C20.9621 15.6981 20.1991 14.9661 18.9721 14.9661C18.2781 14.9661 17.7381 15.1701 17.3661 15.5721C16.8491 16.1321 16.8891 16.8421 17.0001 17.0001V23.0001H14.9781V13.0201H16.8941V13.3561C16.8933 13.4562 16.9207 13.5545 16.9733 13.6397C17.0259 13.7249 17.1014 13.7935 17.1912 13.8377C17.2811 13.8819 17.3815 13.8998 17.4811 13.8895C17.5806 13.8791 17.6752 13.8409 17.7541 13.7791L17.8941 13.6711C18.2991 13.3521 18.7181 13.0211 19.5161 13.0211C20.3421 13.0211 23.0391 13.2841 23.0391 16.6581V23.0001H23.0381Z" fill="#0A1E63"/>
<path d="M11.0001 6.96582C9.87806 6.96582 8.96606 7.87782 8.96606 8.99982C8.96606 10.1218 9.87806 11.0338 11.0001 11.0338C12.1221 11.0338 13.0341 10.1218 13.0341 8.99982C13.0341 7.87782 12.1221 6.96582 11.0001 6.96582ZM11.0001 9.96582C10.4681 9.96582 10.0341 9.53182 10.0341 8.99982C10.0341 8.46782 10.4681 8.03382 11.0001 8.03382C11.5321 8.03382 11.9661 8.46782 11.9661 8.99982C11.9661 9.53182 11.5321 9.96582 11.0001 9.96582Z" fill="#0A1E63"/>
<path d="M12.4282 11.9512H9.46015C9.16515 11.9512 8.92615 12.1902 9.00015 12.5002V23.5002C8.92615 23.7802 9.16515 24.0202 9.46015 24.0002H12.4282C12.7232 24.0202 12.9622 23.7802 12.9622 23.4852V12.4852C12.9622 12.3435 12.9059 12.2077 12.8057 12.1076C12.7056 12.0074 12.5698 11.9512 12.4282 11.9512ZM12.0002 23.0002H9.99415V13.0202H12.0002V23.0002Z" fill="#0A1E63"/>
<path d="M16.0001 -0.0341797C7.15806 -0.0341797 -0.0339355 7.15782 -0.0339355 15.9998C-0.0339355 24.8418 7.15806 32.0338 16.0001 32.0338C24.8421 32.0338 32.0341 24.8418 32.0341 15.9998C32.0341 7.15782 24.8421 -0.0341797 16.0001 -0.0341797ZM16.0001 30.9658C7.74806 30.9658 1.03406 24.2518 1.03406 15.9998C1.03406 7.74782 7.74806 1.03382 16.0001 1.03382C24.2521 1.03382 30.9661 7.74782 30.9661 15.9998C30.9661 24.2518 24.2521 30.9658 16.0001 30.9658Z" fill="black"/>
</g>
<defs>
<clipPath id="clip0">
<path d="M0 16C0 7.16344 7.16344 0 16 0C24.8366 0 32 7.16344 32 16C32 24.8366 24.8366 32 16 32C7.16344 32 0 24.8366 0 16Z" fill="white"/>
</clipPath>
</defs>
</svg>
