<svg width="32" height="32" viewBox="0 0 32 32" fill="none" xmlns="http://www.w3.org/2000/svg">
<g clip-path="url(#clip0)">
<path d="M19.515 11.9519C18.837 11.9519 18.335 12.1229 17.942 12.3389C17.879 12.1149 17.672 11.9509 17.428 11.9999H14.444C14.149 11.9509 13.91 12.1899 14.001 12.4999V23.4999C13.91 23.7799 14.149 24.0199 14.444 23.9999H17.428C17.723 24.0199 17.962 23.7799 17.962 23.4849L17.961 16.8369C17.96 16.8339 17.949 16.5159 18.15 16.2969C18.311 16.1229 18.588 16.0339 18.971 16.0339C19.609 16.0339 19.893 16.2949 19.999 16.8789V23.4849C19.894 23.7799 20.133 24.0199 20.428 23.9999H23.573C23.868 24.0199 24.107 23.7799 24.001 23.4849V16.6569C24.106 13.1849 21.633 11.9519 19.515 11.9519ZM23.038 22.9999H20.962V16.8789C20.962 15.6979 20.199 14.9659 18.972 14.9659C18.278 14.9659 17.738 15.1699 17.366 15.5719C16.849 16.1319 16.889 16.8419 17 16.9999V22.9999H14.978V13.0199H16.894V13.3559C16.8932 13.456 16.9207 13.5543 16.9733 13.6395C17.0258 13.7246 17.1014 13.7933 17.1912 13.8374C17.281 13.8816 17.3815 13.8996 17.481 13.8892C17.5806 13.8789 17.6752 13.8406 17.754 13.7789L17.894 13.6709C18.299 13.3519 18.718 13.0209 19.516 13.0209C20.342 13.0209 23.039 13.2839 23.039 16.6579V22.9999H23.038Z" fill="#0A1E63"/>
<path d="M11 6.96594C9.878 6.96594 8.966 7.87794 8.966 8.99994C8.966 10.1219 9.878 11.0339 11 11.0339C12.122 11.0339 13.034 10.1219 13.034 8.99994C13.034 7.87794 12.122 6.96594 11 6.96594ZM11 9.96594C10.468 9.96594 10.034 9.53194 10.034 8.99994C10.034 8.46794 10.468 8.03394 11 8.03394C11.532 8.03394 11.966 8.46794 11.966 8.99994C11.966 9.53194 11.532 9.96594 11 9.96594Z" fill="#0A1E63"/>
<path d="M12.428 11.9509H9.46C9.165 11.9509 8.926 12.1899 9 12.4999V23.4999C8.926 23.7799 9.165 24.0199 9.46 23.9999H12.428C12.723 24.0199 12.962 23.7799 12.962 23.4849V12.4849C12.962 12.3433 12.9057 12.2075 12.8056 12.1073C12.7055 12.0072 12.5696 11.9509 12.428 11.9509ZM12 22.9999H9.994V13.0199H12V22.9999Z" fill="#0A1E63"/>
<path d="M16 -0.0340576C7.158 -0.0340576 -0.0339966 7.15794 -0.0339966 15.9999C-0.0339966 24.8419 7.158 32.0339 16 32.0339C24.842 32.0339 32.034 24.8419 32.034 15.9999C32.034 7.15794 24.842 -0.0340576 16 -0.0340576ZM16 30.9659C7.748 30.9659 1.034 24.2519 1.034 15.9999C1.034 7.74794 7.748 1.03394 16 1.03394C24.252 1.03394 30.966 7.74794 30.966 15.9999C30.966 24.2519 24.252 30.9659 16 30.9659Z" fill="black"/>
</g>
<defs>
<clipPath id="clip0">
<path d="M0 16C0 7.16344 7.16344 0 16 0C24.8366 0 32 7.16344 32 16C32 24.8366 24.8366 32 16 32C7.16344 32 0 24.8366 0 16Z" fill="white"/>
</clipPath>
</defs>
</svg>
