<svg width="42" height="32" viewBox="0 0 42 32" fill="none" xmlns="http://www.w3.org/2000/svg">
<path d="M3.5 26C3.63261 26 3.75979 25.9473 3.85355 25.8536C3.94732 25.7598 4 25.6326 4 25.5V2C4 1.402 4.402 1 5 1H37C37.57 1 38 1.468 38 2.089V25.5C38 25.6326 38.0527 25.7598 38.1464 25.8536C38.2402 25.9473 38.3674 26 38.5 26C38.6326 26 38.7598 25.9473 38.8536 25.8536C38.9473 25.7598 39 25.6326 39 25.5V2.089C39 0.917 38.122 0 37 0H5C3.841 0 3 0.841 3 2V25.5C3 25.6326 3.05268 25.7598 3.14645 25.8536C3.24021 25.9473 3.36739 26 3.5 26Z" fill="black"/>
<path d="M6.5 3C6.36739 3 6.24021 3.05268 6.14645 3.14645C6.05268 3.24021 6 3.36739 6 3.5V25.5C6 25.6326 6.05268 25.7598 6.14645 25.8536C6.24021 25.9473 6.36739 26 6.5 26H35.5C35.6326 26 35.7598 25.9473 35.8536 25.8536C35.9473 25.7598 36 25.6326 36 25.5V3.5C36 3.36739 35.9473 3.24021 35.8536 3.14645C35.7598 3.05268 35.6326 3 35.5 3H6.5ZM35 25H7V4H35V25Z" fill="black"/>
<path d="M41.5 28H0.5C0.367392 28 0.240215 28.0527 0.146447 28.1464C0.0526784 28.2402 0 28.3674 0 28.5L0 29.675C0 30.873 1.408 32 2.5 32H39.5C40.645 32 42 30.645 42 29.5V28.5C42 28.3674 41.9473 28.2402 41.8536 28.1464C41.7598 28.0527 41.6326 28 41.5 28ZM41 29.5C41 30.089 40.089 31 39.5 31H2.5C1.869 31 1 30.232 1 29.675V29H41V29.5Z" fill="black"/>
</svg>
