<svg width="32" height="32" viewBox="0 0 32 32" fill="none" xmlns="http://www.w3.org/2000/svg">
<path d="M10.5 0C4.71 0 0 4.71 0 10.5C0 16.29 4.71 21 10.5 21C13.225 21 15.703 19.948 17.571 18.24C17.593 18.279 17.613 18.32 17.647 18.354L19.798 20.505C19.5693 20.8847 19.475 21.3303 19.5301 21.7701C19.5853 22.21 19.7867 22.6185 20.102 22.93L28.587 31.415C28.964 31.792 29.466 32 30 32C30.534 32 31.036 31.792 31.414 31.414C31.792 31.036 32 30.534 32 30C32 29.466 31.792 28.964 31.414 28.586L22.929 20.101C22.295 19.467 21.27 19.372 20.509 19.802L18.354 17.647C18.32 17.613 18.28 17.593 18.24 17.571C20.0139 15.6434 20.999 13.1197 21 10.5C21 4.71 16.29 0 10.5 0ZM22.222 20.808L30.707 29.293C30.896 29.482 31 29.733 31 30C31 30.267 30.896 30.518 30.707 30.707C30.5164 30.8886 30.2632 30.9899 30 30.9899C29.7368 30.9899 29.4836 30.8886 29.293 30.707L20.808 22.222C20.7148 22.1293 20.6409 22.0192 20.5904 21.8979C20.5399 21.7765 20.514 21.6464 20.514 21.515C20.514 21.3836 20.5399 21.2535 20.5904 21.1321C20.6409 21.0108 20.7148 20.9007 20.808 20.808C20.9007 20.7148 21.0108 20.6409 21.1321 20.5904C21.2535 20.5399 21.3836 20.514 21.515 20.514C21.6464 20.514 21.7765 20.5399 21.8979 20.5904C22.0192 20.6409 22.1293 20.7148 22.222 20.808ZM10.5 20C5.262 20 1 15.738 1 10.5C1 5.262 5.262 1 10.5 1C15.738 1 20 5.262 20 10.5C20 15.738 15.738 20 10.5 20Z" fill="black"/>
<path d="M10.5 3C6.364 3 3 6.364 3 10.5C3 14.636 6.364 18 10.5 18C14.636 18 18 14.636 18 10.5C18 6.364 14.636 3 10.5 3ZM10.5 17C6.916 17 4 14.084 4 10.5C4 6.916 6.916 4 10.5 4C14.084 4 17 6.916 17 10.5C17 14.084 14.084 17 10.5 17Z" fill="black"/>
</svg>
