<svg width="32" height="32" viewBox="0 0 32 32" fill="none" xmlns="http://www.w3.org/2000/svg">
<g clip-path="url(#clip0)">
<path d="M0 31.4791C0 31.6117 0.0526784 31.7388 0.146447 31.8326C0.240215 31.9264 0.367392 31.9791 0.5 31.9791H31.611C31.6771 31.9796 31.7426 31.9668 31.8036 31.9413C31.8646 31.9159 31.9199 31.8784 31.966 31.8311L31.969 31.8291C31.972 31.8261 31.972 31.8201 31.976 31.8171C32.0258 31.7609 32.0623 31.6942 32.083 31.6221C32.09 31.5991 32.093 31.5771 32.097 31.5531C32.101 31.5281 32.112 31.5061 32.112 31.4801C32.112 31.4401 32.098 31.4051 32.089 31.3681C32.086 31.3541 32.092 31.3401 32.087 31.3261L28.927 21.6111C28.903 21.5358 28.8612 21.4675 28.805 21.4121L11.688 4.29405C11.67 4.26605 11.657 4.23605 11.633 4.21105L7.894 0.472053C7.60157 0.180465 7.20546 0.0167236 6.7925 0.0167236C6.37954 0.0167236 5.98343 0.180465 5.691 0.472053L0.456 5.70705C0.162 6.00105 0 6.39205 0 6.80805C0 7.22405 0.162 7.61605 0.456 7.91005L4.112 11.5661C4.13 11.5931 4.142 11.6241 4.166 11.6481L21.256 28.8531C21.3147 28.9128 21.3876 28.9565 21.468 28.9801L28.181 30.9801H0.5C0.434386 30.9799 0.369391 30.9927 0.308734 31.0177C0.248077 31.0428 0.19295 31.0795 0.146507 31.1259C0.100065 31.1722 0.0632192 31.2273 0.0380796 31.2879C0.0129399 31.3485 -1.31753e-07 31.4134 0 31.4791H0ZM6.362 10.1611L22.049 25.6471L21.472 27.6491L5.227 11.2961L6.362 10.1611ZM22.816 25.0001L7.068 9.45505L9.505 7.01805L25.112 22.6661V25.0001H22.816ZM25.735 21.8751L10.212 6.31105L11.251 5.27205L27.462 21.4831L25.735 21.8751ZM22.988 26.0001H25.612C25.7446 26.0001 25.8718 25.9474 25.9656 25.8536C26.0593 25.7598 26.112 25.6327 26.112 25.5001V22.8151L28.119 22.3591L30.842 30.7291L22.354 28.2001L22.988 26.0001ZM1 6.80805C1 6.65905 1.058 6.52005 1.163 6.41405L6.398 1.17905C6.50277 1.07469 6.64462 1.0161 6.7925 1.0161C6.94038 1.0161 7.08223 1.07469 7.187 1.17905L10.559 4.55105L4.536 10.5741L1.164 7.20205C1.11179 7.15062 1.07039 7.08927 1.04223 7.02161C1.01406 6.95395 0.999707 6.88134 1 6.80805Z" fill="black"/>
</g>
<defs>
<clipPath id="clip0">
<rect width="32" height="32" fill="white"/>
</clipPath>
</defs>
</svg>
