<svg width="36" height="36" viewBox="0 0 36 36" fill="none" xmlns="http://www.w3.org/2000/svg">
<g filter="url(#filter0_d)">
<g clip-path="url(#clip0)">
<path d="M18 -0.0340576C9.159 -0.0340576 1.965 7.15794 1.965 15.9999C1.965 24.8419 9.159 32.0339 18 32.0339C26.841 32.0339 34.035 24.8419 34.035 15.9999C34.035 7.15794 26.841 -0.0340576 18 -0.0340576ZM18 30.9659C9.748 30.9659 3.035 24.2519 3.035 15.9999C3.035 7.74794 9.748 1.03394 18 1.03394C26.252 1.03394 32.965 7.74794 32.965 15.9999C32.965 24.2519 26.252 30.9659 18 30.9659Z" fill="black"/>
<path d="M17.4087 23.1913L17.41 7.61324C17.4065 7.45415 17.4654 7.30017 17.5736 7.18519C17.6819 7.07021 17.8306 7.00363 17.9872 7.00011C18.1437 6.99658 18.2952 7.05639 18.4084 7.16639C18.4644 7.22086 18.5093 7.286 18.5406 7.35811C18.5718 7.43022 18.5888 7.50767 18.5905 7.58644V23.1913L23.507 18.5541C23.5636 18.5001 23.6302 18.4581 23.7029 18.4304C23.7756 18.4027 23.853 18.3899 23.9306 18.3928C24.0082 18.3958 24.0845 18.4143 24.155 18.4473C24.2255 18.4803 24.2888 18.5273 24.3414 18.5854C24.3944 18.643 24.4356 18.7107 24.4628 18.7845C24.4899 18.8584 24.5025 18.937 24.4996 19.0158C24.4967 19.0946 24.4786 19.1721 24.4462 19.2437C24.4137 19.3154 24.3677 19.3798 24.3107 19.4333L18.9581 24.48C18.6177 24.8259 18.3116 25 18.0032 25C17.6912 25 17.3792 24.8235 17.0258 24.4656L11.6886 19.4345C11.5739 19.3262 11.5062 19.176 11.5004 19.017C11.4946 18.858 11.5513 18.7031 11.6578 18.5866C11.7644 18.47 11.9122 18.4012 12.0687 18.3953C12.1461 18.3924 12.2234 18.4051 12.2961 18.4325C12.3688 18.46 12.4354 18.5017 12.4922 18.5553L17.4087 23.1913Z" fill="black"/>
</g>
</g>
<defs>
<filter id="filter0_d" x="0" y="0" width="36" height="36" filterUnits="userSpaceOnUse" color-interpolation-filters="sRGB">
<feFlood flood-opacity="0" result="BackgroundImageFix"/>
<feColorMatrix in="SourceAlpha" type="matrix" values="0 0 0 0 0 0 0 0 0 0 0 0 0 0 0 0 0 0 127 0"/>
<feOffset dy="2"/>
<feGaussianBlur stdDeviation="1"/>
<feColorMatrix type="matrix" values="0 0 0 0 0 0 0 0 0 0 0 0 0 0 0 0 0 0 0.25 0"/>
<feBlend mode="normal" in2="BackgroundImageFix" result="effect1_dropShadow"/>
<feBlend mode="normal" in="SourceGraphic" in2="effect1_dropShadow" result="shape"/>
</filter>
<clipPath id="clip0">
<path d="M2 16C2 7.16344 9.16344 0 18 0C26.8366 0 34 7.16344 34 16C34 24.8366 26.8366 32 18 32C9.16344 32 2 24.8366 2 16Z" fill="white"/>
</clipPath>
</defs>
</svg>
