<svg width="40" height="40" viewBox="0 0 40 40" fill="none" xmlns="http://www.w3.org/2000/svg">
<g filter="url(#filter0_d)">
<g clip-path="url(#clip0)">
<path d="M3.96594 16C3.96594 24.841 11.1579 32.035 19.9999 32.035C28.8419 32.035 36.0339 24.841 36.0339 16C36.0339 7.15903 28.8419 -0.0349655 19.9999 -0.0349655C11.1579 -0.0349655 3.96594 7.15903 3.96594 16ZM34.9659 16C34.9659 24.252 28.2519 30.965 19.9999 30.965C11.7479 30.965 5.03394 24.252 5.03394 16C5.03394 7.74803 11.7479 1.03503 19.9999 1.03503C28.2519 1.03503 34.9659 7.74803 34.9659 16Z" fill="black"/>
<path d="M27.1913 16.5913L11.6132 16.59C11.4542 16.5935 11.3002 16.5346 11.1852 16.4264C11.0702 16.3181 11.0036 16.1694 11.0001 16.0128C10.9966 15.8563 11.0564 15.7048 11.1664 15.5916C11.2209 15.5356 11.286 15.4907 11.3581 15.4594C11.4302 15.4282 11.5077 15.4112 11.5864 15.4095H27.1913L22.5541 10.493C22.5001 10.4364 22.4581 10.3698 22.4304 10.2971C22.4027 10.2244 22.3899 10.147 22.3928 10.0694C22.3958 9.99179 22.4143 9.91554 22.4473 9.84503C22.4803 9.77452 22.5273 9.71116 22.5854 9.65861C22.643 9.60561 22.7107 9.56435 22.7845 9.5372C22.8584 9.51005 22.937 9.49754 23.0158 9.5004C23.0946 9.50325 23.1721 9.52142 23.2437 9.55384C23.3154 9.58627 23.3798 9.63231 23.4333 9.68933L28.48 15.0419C28.8259 15.3823 29 15.6884 29 15.9968C29 16.3088 28.8235 16.6208 28.4656 16.9742L23.4345 22.3114C23.3262 22.4261 23.176 22.4938 23.017 22.4996C22.858 22.5054 22.7031 22.4487 22.5866 22.3422C22.47 22.2356 22.4012 22.0878 22.3953 21.9313C22.3924 21.8539 22.4051 21.7766 22.4325 21.7039C22.46 21.6312 22.5017 21.5646 22.5553 21.5078L27.1913 16.5913Z" fill="black"/>
</g>
</g>
<defs>
<filter id="filter0_d" x="0" y="0" width="40" height="40" filterUnits="userSpaceOnUse" color-interpolation-filters="sRGB">
<feFlood flood-opacity="0" result="BackgroundImageFix"/>
<feColorMatrix in="SourceAlpha" type="matrix" values="0 0 0 0 0 0 0 0 0 0 0 0 0 0 0 0 0 0 127 0"/>
<feOffset dy="4"/>
<feGaussianBlur stdDeviation="2"/>
<feColorMatrix type="matrix" values="0 0 0 0 0 0 0 0 0 0 0 0 0 0 0 0 0 0 0.25 0"/>
<feBlend mode="normal" in2="BackgroundImageFix" result="effect1_dropShadow"/>
<feBlend mode="normal" in="SourceGraphic" in2="effect1_dropShadow" result="shape"/>
</filter>
<clipPath id="clip0">
<rect x="4" y="32" width="32" height="32" rx="16" transform="rotate(-90 4 32)" fill="white"/>
</clipPath>
</defs>
</svg>
