<svg width="40" height="40" viewBox="0 0 40 40" fill="none" xmlns="http://www.w3.org/2000/svg">
<g filter="url(#filter0_d)">
<g clip-path="url(#clip0)">
<path d="M36.0341 16C36.0341 7.15897 28.8421 -0.0350342 20.0001 -0.0350342C11.1581 -0.0350342 3.96606 7.15897 3.96606 16C3.96606 24.841 11.1581 32.035 20.0001 32.035C28.8421 32.035 36.0341 24.841 36.0341 16ZM5.03406 16C5.03406 7.74797 11.7481 1.03497 20.0001 1.03497C28.2521 1.03497 34.9661 7.74797 34.9661 16C34.9661 24.252 28.2521 30.965 20.0001 30.965C11.7481 30.965 5.03406 24.252 5.03406 16Z" fill="black"/>
<path d="M12.8087 15.4087L28.3868 15.41C28.5458 15.4065 28.6998 15.4654 28.8148 15.5736C28.9298 15.6819 28.9964 15.8306 28.9999 15.9872C29.0034 16.1437 28.9436 16.2952 28.8336 16.4084C28.7791 16.4644 28.714 16.5093 28.6419 16.5406C28.5698 16.5718 28.4923 16.5888 28.4136 16.5905L12.8087 16.5905L17.4459 21.507C17.4999 21.5636 17.5419 21.6302 17.5696 21.7029C17.5973 21.7756 17.6101 21.853 17.6072 21.9306C17.6042 22.0082 17.5857 22.0845 17.5527 22.155C17.5197 22.2255 17.4727 22.2888 17.4146 22.3414C17.357 22.3944 17.2893 22.4356 17.2155 22.4628C17.1416 22.4899 17.063 22.5025 16.9842 22.4996C16.9054 22.4967 16.8279 22.4786 16.7563 22.4462C16.6846 22.4137 16.6202 22.3677 16.5667 22.3107L11.52 16.9581C11.1741 16.6177 11 16.3116 11 16.0032C11 15.6912 11.1765 15.3792 11.5344 15.0258L16.5655 9.68857C16.6738 9.57385 16.824 9.50616 16.983 9.5004C17.142 9.49464 17.2969 9.55127 17.4134 9.65784C17.53 9.76442 17.5988 9.91219 17.6047 10.0687C17.6076 10.1461 17.5949 10.2234 17.5675 10.2961C17.54 10.3688 17.4983 10.4354 17.4447 10.4922L12.8087 15.4087Z" fill="black"/>
</g>
</g>
<defs>
<filter id="filter0_d" x="0" y="0" width="40" height="40" filterUnits="userSpaceOnUse" color-interpolation-filters="sRGB">
<feFlood flood-opacity="0" result="BackgroundImageFix"/>
<feColorMatrix in="SourceAlpha" type="matrix" values="0 0 0 0 0 0 0 0 0 0 0 0 0 0 0 0 0 0 127 0"/>
<feOffset dy="4"/>
<feGaussianBlur stdDeviation="2"/>
<feColorMatrix type="matrix" values="0 0 0 0 0 0 0 0 0 0 0 0 0 0 0 0 0 0 0.25 0"/>
<feBlend mode="normal" in2="BackgroundImageFix" result="effect1_dropShadow"/>
<feBlend mode="normal" in="SourceGraphic" in2="effect1_dropShadow" result="shape"/>
</filter>
<clipPath id="clip0">
<rect x="36" width="32" height="32" rx="16" transform="rotate(90 36 0)" fill="white"/>
</clipPath>
</defs>
</svg>
