<svg width="25" height="32" viewBox="0 0 25 32" fill="none" xmlns="http://www.w3.org/2000/svg">
<path d="M1.5 32H23.5C24.327 32 25 31.327 25 30.5V1.5C25 0.673 24.327 0 23.5 0H1.5C0.673 0 0 0.673 0 1.5V30.5C0 31.327 0.673 32 1.5 32ZM1 1.5C1 1.36739 1.05268 1.24021 1.14645 1.14645C1.24021 1.05268 1.36739 1 1.5 1H23.5C23.6326 1 23.7598 1.05268 23.8536 1.14645C23.9473 1.24021 24 1.36739 24 1.5V30.5C24 30.6326 23.9473 30.7598 23.8536 30.8536C23.7598 30.9473 23.6326 31 23.5 31H1.5C1.36739 31 1.24021 30.9473 1.14645 30.8536C1.05268 30.7598 1 30.6326 1 30.5V1.5Z" fill="black"/>
<path d="M3.5 27H21.5C21.6326 27 21.7598 26.9473 21.8536 26.8536C21.9473 26.7598 22 26.6326 22 26.5V3.5C22 3.36739 21.9473 3.24021 21.8536 3.14645C21.7598 3.05268 21.6326 3 21.5 3H3.5C3.36739 3 3.24021 3.05268 3.14645 3.14645C3.05268 3.24021 3 3.36739 3 3.5V26.5C3 26.6326 3.05268 26.7598 3.14645 26.8536C3.24021 26.9473 3.36739 27 3.5 27ZM4 4H21V26H4V4Z" fill="black"/>
<path d="M13 30C13.5523 30 14 29.5523 14 29C14 28.4477 13.5523 28 13 28C12.4477 28 12 28.4477 12 29C12 29.5523 12.4477 30 13 30Z" fill="black"/>
</svg>
