<svg width="32" height="32" viewBox="0 0 32 32" fill="none" xmlns="http://www.w3.org/2000/svg">
<g clip-path="url(#clip0)">
<path d="M16 -0.0340576C7.158 -0.0340576 -0.0339966 7.15794 -0.0339966 15.9999C-0.0339966 24.8419 7.158 32.0339 16 32.0339C24.842 32.0339 32.034 24.8419 32.034 15.9999C32.034 7.15794 24.842 -0.0340576 16 -0.0340576ZM16 30.9659C7.748 30.9659 1.034 24.2519 1.034 15.9999C1.034 7.74794 7.748 1.03394 16 1.03394C24.252 1.03394 30.966 7.74794 30.966 15.9999C30.966 24.2519 24.252 30.9659 16 30.9659Z" fill="black"/>
<path d="M17.382 8.95087C17.4143 8.83034 17.4931 8.72755 17.6011 8.66508C17.7091 8.60261 17.8375 8.58557 17.9581 8.61769C19.1017 8.9252 20.1443 9.52782 20.9817 10.3652C21.819 11.2025 22.4216 12.2452 22.7291 13.3887C22.7455 13.4486 22.7498 13.5111 22.742 13.5726C22.7341 13.6341 22.7141 13.6935 22.6832 13.7472C22.6523 13.801 22.6111 13.8482 22.5619 13.886C22.5127 13.9238 22.4566 13.9515 22.3967 13.9675C22.3367 13.9835 22.2742 13.9875 22.2128 13.9793C22.1513 13.9711 22.092 13.9508 22.0384 13.9196C21.9848 13.8884 21.9379 13.8469 21.9004 13.7975C21.8629 13.7481 21.8355 13.6917 21.8198 13.6317C21.5553 12.6479 21.0368 11.7508 20.3164 11.0304C19.596 10.31 18.699 9.79159 17.7151 9.52702C17.6554 9.51107 17.5994 9.48352 17.5504 9.44593C17.5013 9.40834 17.4602 9.36146 17.4292 9.30795C17.3983 9.25445 17.3782 9.19538 17.3701 9.13411C17.362 9.07284 17.366 9.01057 17.382 8.95087ZM17.0654 11.9519C17.6238 12.102 18.1329 12.3962 18.5418 12.8051C18.9506 13.2139 19.2449 13.7231 19.395 14.2815C19.4272 14.402 19.506 14.5049 19.6141 14.5674C19.7221 14.6299 19.8506 14.6469 19.9711 14.6146C20.0917 14.5824 20.1946 14.5036 20.2571 14.3956C20.3195 14.2875 20.3365 14.1591 20.3043 14.0385C20.1112 13.3204 19.7328 12.6656 19.207 12.1398C18.6812 11.614 18.0265 11.2356 17.3084 11.0426C17.2487 11.0266 17.1864 11.0226 17.1252 11.0307C17.0639 11.0388 17.0048 11.0589 16.9513 11.0898C16.8433 11.1523 16.7645 11.2551 16.7322 11.3757C16.7 11.4963 16.717 11.6248 16.7795 11.7328C16.842 11.8409 16.9448 11.9197 17.0654 11.9519ZM23.339 19.6472C23.2075 20.669 22.7086 21.6081 21.9354 22.2889C21.1622 22.9697 20.1675 23.3458 19.1373 23.3469C12.9962 23.3469 8 18.3507 8 12.2096C8.00105 11.1794 8.37711 10.1847 9.05793 9.41151C9.73876 8.63828 10.6778 8.13934 11.6996 8.00789C11.9355 7.97949 12.1743 8.02822 12.3802 8.1468C12.5861 8.26537 12.748 8.44741 12.8419 8.66569L14.4176 12.3424C14.4892 12.5088 14.5184 12.6903 14.5026 12.8708C14.4868 13.0512 14.4265 13.2249 14.3271 13.3764L13.0224 15.37C13.0076 15.3915 12.9986 15.4164 12.9963 15.4423C12.9941 15.4682 12.9985 15.4943 13.0093 15.518C13.6147 16.7531 14.6161 17.75 15.854 18.3498C15.8778 18.3605 15.904 18.3648 15.93 18.3623C15.956 18.3598 15.9809 18.3506 16.0023 18.3356L17.9658 17.0262C18.1177 16.9246 18.2926 16.8626 18.4745 16.8459C18.6565 16.8291 18.8398 16.8583 19.0076 16.9306L22.6811 18.505C22.8994 18.5988 23.0815 18.7608 23.2 18.9666C23.3186 19.1725 23.3674 19.4113 23.339 19.6472ZM22.4052 19.5292C22.4087 19.496 22.4013 19.4625 22.3842 19.4338C22.3671 19.4051 22.3412 19.3827 22.3103 19.37L18.6369 17.7957C18.6129 17.7854 18.5867 17.7813 18.5607 17.7836C18.5347 17.786 18.5097 17.7948 18.488 17.8093L16.5245 19.1187C16.3667 19.2242 16.1843 19.287 15.995 19.3008C15.8058 19.3146 15.6162 19.279 15.4448 19.1975C14.017 18.5055 12.8619 17.3556 12.1635 15.931C12.0817 15.7607 12.0452 15.572 12.0577 15.3834C12.0702 15.1948 12.1313 15.0127 12.2349 14.8546L13.5396 12.8609C13.5538 12.8393 13.5624 12.8144 13.5647 12.7886C13.567 12.7628 13.5628 12.7369 13.5525 12.7131L11.9769 9.03651C11.9652 9.00851 11.9456 8.98451 11.9204 8.96746C11.8953 8.95041 11.8658 8.94105 11.8355 8.94051C11.8295 8.94053 11.8236 8.94092 11.8176 8.94169C11.023 9.04402 10.2928 9.43213 9.7635 10.0335C9.23415 10.6349 8.94184 11.4084 8.94118 12.2096C8.94423 14.9128 10.0194 17.5045 11.9309 19.416C13.8424 21.3274 16.434 22.4026 19.1373 22.4057C19.9384 22.405 20.712 22.1127 21.3134 21.5834C21.9147 21.054 22.3029 20.3238 22.4052 19.5292Z" fill="#0A1E63"/>
</g>
<defs>
<clipPath id="clip0">
<path d="M0 16C0 7.16344 7.16344 0 16 0C24.8366 0 32 7.16344 32 16C32 24.8366 24.8366 32 16 32C7.16344 32 0 24.8366 0 16Z" fill="white"/>
</clipPath>
</defs>
</svg>
