<svg width="18" height="14" viewBox="0 0 18 14" fill="none" xmlns="http://www.w3.org/2000/svg">
<path d="M16.1913 7.5913L0.613239 7.59002C0.454154 7.59349 0.300172 7.53463 0.185189 7.42639C0.0702062 7.31814 0.00363009 7.16939 0.000105074 7.01284C-0.00341995 6.8563 0.0563946 6.70479 0.166392 6.59164C0.220858 6.53562 0.286004 6.4907 0.358112 6.45945C0.430219 6.4282 0.507667 6.41118 0.586438 6.40946L16.1913 6.40946L11.5541 1.49299C11.5001 1.43637 11.4581 1.36979 11.4304 1.29708C11.4027 1.22437 11.3899 1.14698 11.3928 1.06939C11.3958 0.991793 11.4143 0.915537 11.4473 0.845028C11.4803 0.774519 11.5273 0.711159 11.5854 0.658607C11.643 0.605614 11.7107 0.564355 11.7845 0.537203C11.8584 0.510052 11.937 0.497543 12.0158 0.500399C12.0946 0.503255 12.1721 0.521419 12.2437 0.553843C12.3154 0.586268 12.3798 0.632315 12.4333 0.689334L17.48 6.0419C17.8259 6.38228 18 6.68837 18 6.99684C18 7.30884 17.8235 7.62085 17.4656 7.97422L12.4345 13.3114C12.3262 13.4261 12.176 13.4938 12.017 13.4996C11.858 13.5054 11.7031 13.4487 11.5866 13.3422C11.47 13.2356 11.4012 13.0878 11.3953 12.9313C11.3924 12.8539 11.4051 12.7766 11.4325 12.7039C11.46 12.6312 11.5017 12.5646 11.5553 12.5078L16.1913 7.5913Z" fill="black"/>
</svg>
