<svg width="46" height="46" viewBox="0 0 46 46" fill="none" xmlns="http://www.w3.org/2000/svg">
<rect x="1.33331" y="0.666504" width="44" height="44" rx="22" fill="#F1D6DB"/>
<path d="M25.1445 14.4946L26.5625 15.4204L21.9102 22.4751C22.5352 22.2642 23.1211 22.1587 23.668 22.1587C25.0352 22.1587 26.1953 22.6548 27.1484 23.647C28.1016 24.6313 28.5781 25.8462 28.5781 27.2915C28.5781 28.2837 28.3477 29.1821 27.8867 29.9868C27.4258 30.7837 26.7695 31.4204 25.918 31.897C25.0742 32.3657 24.1641 32.6001 23.1875 32.6001C22.2422 32.6001 21.3633 32.3735 20.5508 31.9204C19.7461 31.4595 19.1133 30.8149 18.6523 29.9868C18.1914 29.1587 17.9609 28.272 17.9609 27.3267C17.9609 26.6235 18.1016 25.8853 18.3828 25.1118C18.6719 24.3306 19.1836 23.3931 19.918 22.2993L25.1445 14.4946ZM23.2578 23.6704C22.2578 23.6704 21.4023 24.0259 20.6914 24.7368C19.9883 25.4399 19.6367 26.2954 19.6367 27.3032C19.6367 28.3032 19.9883 29.1587 20.6914 29.8696C21.4023 30.5728 22.2578 30.9243 23.2578 30.9243C24.2578 30.9243 25.1094 30.5728 25.8125 29.8696C26.5234 29.1587 26.8789 28.3032 26.8789 27.3032C26.8789 26.2954 26.5234 25.4399 25.8125 24.7368C25.1094 24.0259 24.2578 23.6704 23.2578 23.6704Z" fill="#0A1E63"/>
<rect x="1.33331" y="0.666504" width="44" height="44" rx="22" stroke="black"/>
</svg>
