<svg width="45" height="46" viewBox="0 0 45 46" fill="none" xmlns="http://www.w3.org/2000/svg">
<g filter="url(#filter0_b)">
<rect y="0.166504" width="45" height="45" rx="22.5" fill="#F1D6DB" fill-opacity="0.25"/>
<path d="M18.6865 18.9243H16.9287C17.249 17.5024 17.8623 16.4087 18.7686 15.6431C19.6748 14.8774 20.7451 14.4946 21.9795 14.4946C22.8779 14.4946 23.7139 14.7017 24.4873 15.1157C25.2686 15.522 25.8701 16.0728 26.292 16.7681C26.7217 17.4634 26.9365 18.1899 26.9365 18.9478C26.9365 20.4321 26.1982 21.6079 24.7217 22.4751C25.5498 22.811 26.2295 23.3032 26.7607 23.9517C27.5107 24.8657 27.8857 25.8892 27.8857 27.022C27.8857 27.9985 27.6279 28.9321 27.1123 29.8228C26.5967 30.7056 25.8936 31.3892 25.0029 31.8735C24.1123 32.3579 23.1162 32.6001 22.0146 32.6001C20.5303 32.6001 19.292 32.1743 18.2998 31.3228C17.3076 30.4634 16.6592 29.2056 16.3545 27.5493H18.042C18.3389 28.6665 18.7646 29.4751 19.3193 29.9751C20.0303 30.6079 20.9365 30.9243 22.0381 30.9243C23.2881 30.9243 24.292 30.5493 25.0498 29.7993C25.8076 29.0493 26.1865 28.1704 26.1865 27.1626C26.1865 26.4907 25.9951 25.8618 25.6123 25.2759C25.2373 24.6899 24.7295 24.2485 24.0889 23.9517C23.4561 23.6548 22.4717 23.4712 21.1357 23.4009V21.8188C21.9248 21.8188 22.6436 21.6821 23.292 21.4087C23.9404 21.1274 24.4092 20.772 24.6982 20.3423C24.9951 19.9126 25.1436 19.4438 25.1436 18.936C25.1436 18.186 24.8428 17.5376 24.2412 16.9907C23.6475 16.4438 22.8936 16.1704 21.9795 16.1704C21.2373 16.1704 20.5967 16.3813 20.0576 16.8032C19.5186 17.2173 19.0615 17.9243 18.6865 18.9243Z" fill="#0A1E63"/>
<rect x="0.5" y="0.666504" width="44" height="44" rx="22" stroke="black"/>
</g>
<defs>
<filter id="filter0_b" x="-8" y="-7.8335" width="61" height="61" filterUnits="userSpaceOnUse" color-interpolation-filters="sRGB">
<feFlood flood-opacity="0" result="BackgroundImageFix"/>
<feGaussianBlur in="BackgroundImage" stdDeviation="4"/>
<feComposite in2="SourceAlpha" operator="in" result="effect1_backgroundBlur"/>
<feBlend mode="normal" in="SourceGraphic" in2="effect1_backgroundBlur" result="shape"/>
</filter>
</defs>
</svg>
