<svg width="46" height="46" viewBox="0 0 46 46" fill="none" xmlns="http://www.w3.org/2000/svg">
<rect x="1.16663" y="1.3335" width="44" height="44" rx="22" fill="#F1D6DB"/>
<path d="M28.1445 15.5952V17.2358H22.0039L21.1484 21.9351C21.8984 21.7163 22.5742 21.6069 23.1758 21.6069C24.7461 21.6069 26.0391 22.1343 27.0547 23.189C28.0781 24.2358 28.5898 25.5796 28.5898 27.2202C28.5898 28.353 28.3281 29.3921 27.8047 30.3374C27.2812 31.2827 26.5703 32.0093 25.6719 32.5171C24.7812 33.0171 23.75 33.2671 22.5781 33.2671C21.1797 33.2671 20 32.8413 19.0391 31.9897C18.0781 31.1304 17.5039 30.021 17.3164 28.6616H19.0859C19.2188 29.3257 19.4414 29.8647 19.7539 30.2788C20.0742 30.6929 20.4961 31.0288 21.0195 31.2866C21.5508 31.5366 22.1055 31.6616 22.6836 31.6616C23.8164 31.6616 24.7891 31.2319 25.6016 30.3726C26.4141 29.5132 26.8203 28.439 26.8203 27.1499C26.8203 25.9858 26.4531 25.0405 25.7188 24.314C24.9844 23.5874 24.0039 23.2241 22.7773 23.2241C21.7617 23.2241 20.5312 23.5327 19.0859 24.1499L20.6797 15.5952H28.1445Z" fill="#0A1E63"/>
<rect x="1.16663" y="1.3335" width="44" height="44" rx="22" stroke="black"/>
</svg>
