<svg width="46" height="45" viewBox="0 0 46 45" fill="none" xmlns="http://www.w3.org/2000/svg">
<rect x="1.33301" y="0.5" width="44" height="44" rx="22" fill="#F1D6DB"/>
<path d="M19.2876 20.1641H17.6353C17.6821 18.4609 18.2485 17.0625 19.3345 15.9688C20.4282 14.875 21.7759 14.3281 23.3774 14.3281C24.9634 14.3281 26.2446 14.8398 27.2212 15.8633C28.2056 16.8867 28.6978 18.0938 28.6978 19.4844C28.6978 20.4609 28.4634 21.3789 27.9946 22.2383C27.5259 23.0898 26.6157 24.2461 25.2642 25.707L20.9751 30.3359H28.9321V32H17.2251L23.811 24.8867C25.147 23.457 26.0142 22.3984 26.4126 21.7109C26.8188 21.0156 27.022 20.2852 27.022 19.5195C27.022 18.5508 26.6587 17.7188 25.9321 17.0234C25.2134 16.3203 24.3306 15.9688 23.2837 15.9688C22.1821 15.9688 21.2642 16.3359 20.5298 17.0703C19.8032 17.8047 19.3892 18.8359 19.2876 20.1641Z" fill="#0A1E63"/>
<rect x="1.33301" y="0.5" width="44" height="44" rx="22" stroke="black"/>
</svg>
