<svg width="46" height="45" viewBox="0 0 46 45" fill="none" xmlns="http://www.w3.org/2000/svg">
<g filter="url(#filter0_b)">
<rect x="0.833984" width="45" height="45" rx="22.5" fill="#F1D6DB" fill-opacity="0.25"/>
<path d="M19.2881 20.1641H17.6357C17.6826 18.4609 18.249 17.0625 19.335 15.9688C20.4287 14.875 21.7764 14.3281 23.3779 14.3281C24.9639 14.3281 26.2451 14.8398 27.2217 15.8633C28.2061 16.8867 28.6982 18.0938 28.6982 19.4844C28.6982 20.4609 28.4639 21.3789 27.9951 22.2383C27.5264 23.0898 26.6162 24.2461 25.2646 25.707L20.9756 30.3359H28.9326V32H17.2256L23.8115 24.8867C25.1475 23.457 26.0146 22.3984 26.4131 21.7109C26.8193 21.0156 27.0225 20.2852 27.0225 19.5195C27.0225 18.5508 26.6592 17.7188 25.9326 17.0234C25.2139 16.3203 24.3311 15.9688 23.2842 15.9688C22.1826 15.9688 21.2646 16.3359 20.5303 17.0703C19.8037 17.8047 19.3896 18.8359 19.2881 20.1641Z" fill="#0A1E63"/>
<rect x="1.33398" y="0.5" width="44" height="44" rx="22" stroke="black"/>
</g>
<defs>
<filter id="filter0_b" x="-7.16602" y="-8" width="61" height="61" filterUnits="userSpaceOnUse" color-interpolation-filters="sRGB">
<feFlood flood-opacity="0" result="BackgroundImageFix"/>
<feGaussianBlur in="BackgroundImage" stdDeviation="4"/>
<feComposite in2="SourceAlpha" operator="in" result="effect1_backgroundBlur"/>
<feBlend mode="normal" in="SourceGraphic" in2="effect1_backgroundBlur" result="shape"/>
</filter>
</defs>
</svg>
