<svg width="45" height="46" viewBox="0 0 45 46" fill="none" xmlns="http://www.w3.org/2000/svg">
<rect x="0.5" y="0.666504" width="44" height="44" rx="22" fill="#F1D6DB"/>
<path d="M18.686 18.9243H16.9282C17.2485 17.5024 17.8618 16.4087 18.7681 15.6431C19.6743 14.8774 20.7446 14.4946 21.979 14.4946C22.8774 14.4946 23.7134 14.7017 24.4868 15.1157C25.2681 15.522 25.8696 16.0728 26.2915 16.7681C26.7212 17.4634 26.936 18.1899 26.936 18.9478C26.936 20.4321 26.1978 21.6079 24.7212 22.4751C25.5493 22.811 26.229 23.3032 26.7603 23.9517C27.5103 24.8657 27.8853 25.8892 27.8853 27.022C27.8853 27.9985 27.6274 28.9321 27.1118 29.8228C26.5962 30.7056 25.8931 31.3892 25.0024 31.8735C24.1118 32.3579 23.1157 32.6001 22.0142 32.6001C20.5298 32.6001 19.2915 32.1743 18.2993 31.3228C17.3071 30.4634 16.6587 29.2056 16.354 27.5493H18.0415C18.3384 28.6665 18.7642 29.4751 19.3188 29.9751C20.0298 30.6079 20.936 30.9243 22.0376 30.9243C23.2876 30.9243 24.2915 30.5493 25.0493 29.7993C25.8071 29.0493 26.186 28.1704 26.186 27.1626C26.186 26.4907 25.9946 25.8618 25.6118 25.2759C25.2368 24.6899 24.729 24.2485 24.0884 23.9517C23.4556 23.6548 22.4712 23.4712 21.1353 23.4009V21.8188C21.9243 21.8188 22.6431 21.6821 23.2915 21.4087C23.9399 21.1274 24.4087 20.772 24.6978 20.3423C24.9946 19.9126 25.1431 19.4438 25.1431 18.936C25.1431 18.186 24.8423 17.5376 24.2407 16.9907C23.647 16.4438 22.8931 16.1704 21.979 16.1704C21.2368 16.1704 20.5962 16.3813 20.0571 16.8032C19.5181 17.2173 19.061 17.9243 18.686 18.9243Z" fill="#0A1E63"/>
<rect x="0.5" y="0.666504" width="44" height="44" rx="22" stroke="black"/>
</svg>
