<svg width="45" height="46" viewBox="0 0 45 46" fill="none" xmlns="http://www.w3.org/2000/svg">
<g filter="url(#filter0_b)">
<rect y="0.166626" width="45" height="45" rx="22.5" fill="#F1D6DB" fill-opacity="0.25"/>
<path d="M24.3113 14.4948L25.7292 15.4205L21.0769 22.4752C21.7019 22.2643 22.2878 22.1588 22.8347 22.1588C24.2019 22.1588 25.3621 22.6549 26.3152 23.6471C27.2683 24.6315 27.7449 25.8463 27.7449 27.2916C27.7449 28.2838 27.5144 29.1823 27.0535 29.9869C26.5925 30.7838 25.9363 31.4205 25.0847 31.8971C24.241 32.3658 23.3308 32.6002 22.3542 32.6002C21.4089 32.6002 20.53 32.3737 19.7175 31.9205C18.9128 31.4596 18.28 30.8151 17.8191 29.9869C17.3582 29.1588 17.1277 28.2721 17.1277 27.3268C17.1277 26.6237 17.2683 25.8854 17.5496 25.1119C17.8386 24.3307 18.3503 23.3932 19.0847 22.2994L24.3113 14.4948ZM22.4246 23.6705C21.4246 23.6705 20.5691 24.026 19.8582 24.7369C19.155 25.4401 18.8035 26.2955 18.8035 27.3033C18.8035 28.3033 19.155 29.1588 19.8582 29.8698C20.5691 30.5729 21.4246 30.9244 22.4246 30.9244C23.4246 30.9244 24.2761 30.5729 24.9792 29.8698C25.6902 29.1588 26.0457 28.3033 26.0457 27.3033C26.0457 26.2955 25.6902 25.4401 24.9792 24.7369C24.2761 24.026 23.4246 23.6705 22.4246 23.6705Z" fill="#0A1E63"/>
<rect x="0.5" y="0.666626" width="44" height="44" rx="22" stroke="black"/>
</g>
<defs>
<filter id="filter0_b" x="-20" y="-19.8334" width="85" height="85" filterUnits="userSpaceOnUse" color-interpolation-filters="sRGB">
<feFlood flood-opacity="0" result="BackgroundImageFix"/>
<feGaussianBlur in="BackgroundImage" stdDeviation="10"/>
<feComposite in2="SourceAlpha" operator="in" result="effect1_backgroundBlur"/>
<feBlend mode="normal" in="SourceGraphic" in2="effect1_backgroundBlur" result="shape"/>
</filter>
</defs>
</svg>
