<svg width="200" height="200" viewBox="0 0 200 200" fill="none" xmlns="http://www.w3.org/2000/svg">
<path d="M29.6149 107.192C27.3589 107.192 25.6469 106.608 24.4789 105.44C23.3109 104.272 22.7269 102.552 22.7269 100.28V91.208C22.7269 90.824 22.8389 90.52 23.0629 90.296C23.2869 90.072 23.5829 89.96 23.9509 89.96C24.3189 89.96 24.6149 90.072 24.8389 90.296C25.0629 90.52 25.1749 90.824 25.1749 91.208V100.448C25.1749 102 25.5429 103.176 26.2789 103.976C27.0309 104.776 28.1429 105.176 29.6149 105.176C31.0709 105.176 32.1749 104.776 32.9269 103.976C33.6789 103.176 34.0549 102 34.0549 100.448V91.208C34.0549 90.84 34.1669 90.544 34.3909 90.32C34.6149 90.08 34.9109 89.96 35.2789 89.96C35.6469 89.96 35.9429 90.072 36.1669 90.296C36.3909 90.52 36.5029 90.824 36.5029 91.208V100.28C36.5029 102.536 35.9109 104.256 34.7269 105.44C33.5589 106.608 31.8549 107.192 29.6149 107.192ZM44.0998 107.168C42.4678 107.168 41.1318 106.832 40.0918 106.16C39.8038 105.984 39.5958 105.8 39.4678 105.608C39.3558 105.416 39.2998 105.2 39.2998 104.96C39.2998 104.704 39.3718 104.488 39.5158 104.312C39.6598 104.136 39.8438 104.048 40.0678 104.048C40.2758 104.048 40.6038 104.176 41.0518 104.432C41.5318 104.688 41.9958 104.896 42.4438 105.056C42.9078 105.216 43.4838 105.296 44.1718 105.296C44.9398 105.296 45.5398 105.16 45.9718 104.888C46.4038 104.616 46.6198 104.232 46.6198 103.736C46.6198 103.416 46.5318 103.16 46.3558 102.968C46.1958 102.776 45.9078 102.608 45.4918 102.464C45.0758 102.304 44.4598 102.136 43.6438 101.96C42.2358 101.656 41.2198 101.248 40.5958 100.736C39.9878 100.208 39.6838 99.496 39.6838 98.6C39.6838 97.912 39.8838 97.296 40.2838 96.752C40.6838 96.192 41.2358 95.76 41.9398 95.456C42.6438 95.152 43.4438 95 44.3398 95C44.9798 95 45.6038 95.088 46.2118 95.264C46.8198 95.424 47.3558 95.664 47.8198 95.984C48.3478 96.336 48.6118 96.744 48.6118 97.208C48.6118 97.464 48.5318 97.68 48.3718 97.856C48.2278 98.032 48.0518 98.12 47.8438 98.12C47.6998 98.12 47.5558 98.088 47.4118 98.024C47.2678 97.96 47.0758 97.856 46.8358 97.712C46.4038 97.456 45.9958 97.256 45.6118 97.112C45.2438 96.968 44.7798 96.896 44.2198 96.896C43.5478 96.896 43.0038 97.04 42.5878 97.328C42.1878 97.616 41.9878 98.008 41.9878 98.504C41.9878 98.952 42.1718 99.304 42.5398 99.56C42.9238 99.8 43.6358 100.032 44.6758 100.256C45.7478 100.48 46.5878 100.736 47.1958 101.024C47.8038 101.312 48.2358 101.672 48.4918 102.104C48.7638 102.52 48.8998 103.056 48.8998 103.712C48.8998 104.752 48.4598 105.592 47.5798 106.232C46.7158 106.856 45.5558 107.168 44.0998 107.168ZM60.766 104.048C60.99 104.048 61.174 104.136 61.318 104.312C61.462 104.488 61.534 104.712 61.534 104.984C61.534 105.448 61.246 105.84 60.67 106.16C60.11 106.48 59.494 106.728 58.822 106.904C58.166 107.08 57.534 107.168 56.926 107.168C55.07 107.168 53.606 106.632 52.534 105.56C51.462 104.472 50.926 102.992 50.926 101.12C50.926 99.92 51.158 98.856 51.622 97.928C52.102 97 52.766 96.28 53.614 95.768C54.478 95.256 55.454 95 56.542 95C58.11 95 59.35 95.504 60.262 96.512C61.174 97.52 61.63 98.88 61.63 100.592C61.63 101.232 61.342 101.552 60.766 101.552H53.35C53.51 104.032 54.702 105.272 56.926 105.272C57.518 105.272 58.03 105.192 58.462 105.032C58.894 104.872 59.35 104.664 59.83 104.408C59.878 104.376 60.006 104.312 60.214 104.216C60.438 104.104 60.622 104.048 60.766 104.048ZM56.59 96.776C55.662 96.776 54.918 97.072 54.358 97.664C53.798 98.256 53.462 99.088 53.35 100.16H59.542C59.494 99.072 59.214 98.24 58.702 97.664C58.206 97.072 57.502 96.776 56.59 96.776ZM70.4451 95.048C71.2131 95 71.5971 95.328 71.5971 96.032C71.5971 96.384 71.5091 96.648 71.3331 96.824C71.1571 97 70.8531 97.104 70.4211 97.136L69.7011 97.208C68.6931 97.304 67.9411 97.656 67.4451 98.264C66.9651 98.872 66.7251 99.608 66.7251 100.472V105.968C66.7251 106.352 66.6131 106.64 66.3891 106.832C66.1651 107.024 65.8771 107.12 65.5251 107.12C65.1731 107.12 64.8771 107.024 64.6371 106.832C64.4131 106.64 64.3011 106.352 64.3011 105.968V96.2C64.3011 95.832 64.4131 95.552 64.6371 95.36C64.8771 95.152 65.1731 95.048 65.5251 95.048C65.8451 95.048 66.1091 95.152 66.3171 95.36C66.5411 95.552 66.6531 95.824 66.6531 96.176V97.328C66.9731 96.624 67.4371 96.088 68.0451 95.72C68.6531 95.352 69.3411 95.136 70.1091 95.072L70.4451 95.048ZM92.9063 105.464C93.0503 105.672 93.1223 105.896 93.1223 106.136C93.1223 106.424 93.0023 106.672 92.7623 106.88C92.5383 107.072 92.2743 107.168 91.9703 107.168C91.5223 107.168 91.1623 106.968 90.8903 106.568L87.6743 101.576C87.3063 101 86.9143 100.6 86.4983 100.376C86.0823 100.136 85.5383 100.016 84.8663 100.016H82.1543V105.872C82.1543 106.256 82.0423 106.56 81.8183 106.784C81.6103 107.008 81.3143 107.12 80.9303 107.12C80.5623 107.12 80.2663 107.008 80.0423 106.784C79.8183 106.56 79.7063 106.256 79.7063 105.872V91.28C79.7063 90.912 79.8103 90.624 80.0183 90.416C80.2423 90.192 80.5463 90.08 80.9303 90.08H86.9063C88.7783 90.08 90.2023 90.496 91.1783 91.328C92.1703 92.16 92.6663 93.376 92.6663 94.976C92.6663 96.304 92.2903 97.384 91.5383 98.216C90.7863 99.032 89.7143 99.552 88.3223 99.776C88.7383 99.888 89.1143 100.088 89.4503 100.376C89.7863 100.664 90.1143 101.064 90.4343 101.576L92.9063 105.464ZM86.6183 98.024C87.8663 98.024 88.7863 97.784 89.3783 97.304C89.9863 96.808 90.2903 96.048 90.2903 95.024C90.2903 94 89.9943 93.256 89.4023 92.792C88.8103 92.312 87.8823 92.072 86.6183 92.072H82.1303V98.024H86.6183ZM105.157 104.048C105.381 104.048 105.565 104.136 105.709 104.312C105.853 104.488 105.925 104.712 105.925 104.984C105.925 105.448 105.637 105.84 105.061 106.16C104.501 106.48 103.885 106.728 103.213 106.904C102.557 107.08 101.925 107.168 101.317 107.168C99.4606 107.168 97.9966 106.632 96.9246 105.56C95.8526 104.472 95.3166 102.992 95.3166 101.12C95.3166 99.92 95.5486 98.856 96.0126 97.928C96.4926 97 97.1566 96.28 98.0046 95.768C98.8686 95.256 99.8446 95 100.933 95C102.501 95 103.741 95.504 104.653 96.512C105.565 97.52 106.021 98.88 106.021 100.592C106.021 101.232 105.733 101.552 105.157 101.552H97.7406C97.9006 104.032 99.0926 105.272 101.317 105.272C101.909 105.272 102.421 105.192 102.853 105.032C103.285 104.872 103.741 104.664 104.221 104.408C104.269 104.376 104.397 104.312 104.605 104.216C104.829 104.104 105.013 104.048 105.157 104.048ZM100.981 96.776C100.053 96.776 99.3086 97.072 98.7486 97.664C98.1886 98.256 97.8526 99.088 97.7406 100.16H103.933C103.885 99.072 103.605 98.24 103.093 97.664C102.597 97.072 101.893 96.776 100.981 96.776ZM112.772 107.168C111.14 107.168 109.804 106.832 108.764 106.16C108.476 105.984 108.268 105.8 108.14 105.608C108.028 105.416 107.972 105.2 107.972 104.96C107.972 104.704 108.044 104.488 108.188 104.312C108.332 104.136 108.516 104.048 108.74 104.048C108.948 104.048 109.276 104.176 109.724 104.432C110.204 104.688 110.668 104.896 111.116 105.056C111.58 105.216 112.156 105.296 112.844 105.296C113.612 105.296 114.212 105.16 114.644 104.888C115.076 104.616 115.292 104.232 115.292 103.736C115.292 103.416 115.204 103.16 115.028 102.968C114.868 102.776 114.58 102.608 114.164 102.464C113.748 102.304 113.132 102.136 112.316 101.96C110.908 101.656 109.892 101.248 109.268 100.736C108.66 100.208 108.356 99.496 108.356 98.6C108.356 97.912 108.556 97.296 108.956 96.752C109.356 96.192 109.908 95.76 110.612 95.456C111.316 95.152 112.116 95 113.012 95C113.652 95 114.276 95.088 114.884 95.264C115.492 95.424 116.028 95.664 116.492 95.984C117.02 96.336 117.284 96.744 117.284 97.208C117.284 97.464 117.204 97.68 117.044 97.856C116.9 98.032 116.724 98.12 116.516 98.12C116.372 98.12 116.228 98.088 116.084 98.024C115.94 97.96 115.748 97.856 115.508 97.712C115.076 97.456 114.668 97.256 114.284 97.112C113.916 96.968 113.452 96.896 112.892 96.896C112.22 96.896 111.676 97.04 111.26 97.328C110.86 97.616 110.66 98.008 110.66 98.504C110.66 98.952 110.844 99.304 111.212 99.56C111.596 99.8 112.308 100.032 113.348 100.256C114.42 100.48 115.26 100.736 115.868 101.024C116.476 101.312 116.908 101.672 117.164 102.104C117.436 102.52 117.572 103.056 117.572 103.712C117.572 104.752 117.132 105.592 116.252 106.232C115.388 106.856 114.228 107.168 112.772 107.168ZM129.438 104.048C129.662 104.048 129.846 104.136 129.99 104.312C130.134 104.488 130.206 104.712 130.206 104.984C130.206 105.448 129.918 105.84 129.342 106.16C128.782 106.48 128.166 106.728 127.494 106.904C126.838 107.08 126.206 107.168 125.598 107.168C123.742 107.168 122.278 106.632 121.206 105.56C120.134 104.472 119.598 102.992 119.598 101.12C119.598 99.92 119.83 98.856 120.294 97.928C120.774 97 121.438 96.28 122.286 95.768C123.15 95.256 124.126 95 125.214 95C126.782 95 128.022 95.504 128.934 96.512C129.846 97.52 130.302 98.88 130.302 100.592C130.302 101.232 130.014 101.552 129.438 101.552H122.022C122.182 104.032 123.374 105.272 125.598 105.272C126.19 105.272 126.702 105.192 127.134 105.032C127.566 104.872 128.022 104.664 128.502 104.408C128.55 104.376 128.678 104.312 128.886 104.216C129.11 104.104 129.294 104.048 129.438 104.048ZM125.262 96.776C124.334 96.776 123.59 97.072 123.03 97.664C122.47 98.256 122.134 99.088 122.022 100.16H128.214C128.166 99.072 127.886 98.24 127.374 97.664C126.878 97.072 126.174 96.776 125.262 96.776ZM137.893 95C139.445 95 140.597 95.392 141.349 96.176C142.117 96.96 142.501 98.152 142.501 99.752V105.968C142.501 106.336 142.397 106.624 142.189 106.832C141.981 107.024 141.693 107.12 141.325 107.12C140.973 107.12 140.693 107.016 140.485 106.808C140.277 106.6 140.173 106.32 140.173 105.968V105.08C139.869 105.752 139.413 106.272 138.805 106.64C138.213 106.992 137.517 107.168 136.717 107.168C135.949 107.168 135.245 107.016 134.605 106.712C133.981 106.392 133.485 105.96 133.117 105.416C132.749 104.872 132.565 104.256 132.565 103.568C132.549 102.704 132.765 102.032 133.213 101.552C133.661 101.056 134.389 100.704 135.397 100.496C136.405 100.272 137.805 100.16 139.597 100.16H140.149V99.464C140.149 98.568 139.965 97.92 139.597 97.52C139.229 97.12 138.637 96.92 137.821 96.92C137.261 96.92 136.733 96.992 136.237 97.136C135.741 97.28 135.197 97.488 134.605 97.76C134.173 98 133.869 98.12 133.693 98.12C133.453 98.12 133.253 98.032 133.093 97.856C132.949 97.68 132.877 97.456 132.877 97.184C132.877 96.944 132.941 96.736 133.069 96.56C133.213 96.368 133.437 96.184 133.741 96.008C134.301 95.704 134.957 95.464 135.709 95.288C136.461 95.096 137.189 95 137.893 95ZM137.149 105.368C138.029 105.368 138.749 105.072 139.309 104.48C139.869 103.872 140.149 103.096 140.149 102.152V101.528H139.717C138.469 101.528 137.509 101.584 136.837 101.696C136.165 101.808 135.685 102 135.397 102.272C135.109 102.528 134.965 102.904 134.965 103.4C134.965 103.976 135.173 104.448 135.589 104.816C136.005 105.184 136.525 105.368 137.149 105.368ZM151.961 95.048C152.729 95 153.113 95.328 153.113 96.032C153.113 96.384 153.025 96.648 152.849 96.824C152.673 97 152.369 97.104 151.937 97.136L151.217 97.208C150.209 97.304 149.457 97.656 148.961 98.264C148.481 98.872 148.241 99.608 148.241 100.472V105.968C148.241 106.352 148.129 106.64 147.905 106.832C147.681 107.024 147.393 107.12 147.041 107.12C146.689 107.12 146.393 107.024 146.153 106.832C145.929 106.64 145.817 106.352 145.817 105.968V96.2C145.817 95.832 145.929 95.552 146.153 95.36C146.393 95.152 146.689 95.048 147.041 95.048C147.361 95.048 147.625 95.152 147.833 95.36C148.057 95.552 148.169 95.824 148.169 96.176V97.328C148.489 96.624 148.953 96.088 149.561 95.72C150.169 95.352 150.857 95.136 151.625 95.072L151.961 95.048ZM159.387 107.168C158.251 107.168 157.251 106.92 156.387 106.424C155.539 105.928 154.875 105.224 154.395 104.312C153.931 103.4 153.699 102.344 153.699 101.144C153.699 99.928 153.939 98.856 154.419 97.928C154.915 97 155.603 96.28 156.483 95.768C157.363 95.256 158.371 95 159.507 95C160.115 95 160.723 95.088 161.331 95.264C161.955 95.44 162.507 95.68 162.987 95.984C163.499 96.336 163.755 96.744 163.755 97.208C163.755 97.48 163.683 97.712 163.539 97.904C163.395 98.08 163.211 98.168 162.987 98.168C162.843 98.168 162.699 98.136 162.555 98.072C162.411 97.992 162.227 97.88 162.003 97.736C161.603 97.48 161.227 97.288 160.875 97.16C160.539 97.016 160.131 96.944 159.651 96.944C158.563 96.944 157.715 97.312 157.107 98.048C156.515 98.784 156.219 99.808 156.219 101.12C156.219 102.432 156.515 103.448 157.107 104.168C157.699 104.872 158.539 105.224 159.627 105.224C160.107 105.224 160.531 105.152 160.899 105.008C161.267 104.864 161.643 104.672 162.027 104.432C162.203 104.32 162.379 104.224 162.555 104.144C162.731 104.064 162.891 104.024 163.035 104.024C163.259 104.024 163.443 104.12 163.587 104.312C163.731 104.488 163.803 104.712 163.803 104.984C163.803 105.208 163.739 105.416 163.611 105.608C163.499 105.784 163.299 105.968 163.011 106.16C162.531 106.48 161.971 106.728 161.331 106.904C160.691 107.08 160.043 107.168 159.387 107.168ZM172.309 95C175.093 95 176.485 96.576 176.485 99.728V105.968C176.485 106.32 176.373 106.6 176.149 106.808C175.925 107.016 175.629 107.12 175.261 107.12C174.893 107.12 174.597 107.016 174.373 106.808C174.165 106.6 174.061 106.32 174.061 105.968V99.752C174.061 98.792 173.861 98.088 173.461 97.64C173.077 97.192 172.469 96.968 171.637 96.968C170.661 96.968 169.877 97.272 169.285 97.88C168.693 98.488 168.397 99.304 168.397 100.328V105.968C168.397 106.32 168.285 106.6 168.061 106.808C167.853 107.016 167.565 107.12 167.197 107.12C166.829 107.12 166.533 107.016 166.309 106.808C166.085 106.6 165.973 106.32 165.973 105.968V91.112C165.973 90.76 166.085 90.48 166.309 90.272C166.549 90.064 166.853 89.96 167.221 89.96C167.573 89.96 167.853 90.064 168.061 90.272C168.285 90.464 168.397 90.728 168.397 91.064V97.064C168.797 96.392 169.333 95.88 170.005 95.528C170.677 95.176 171.445 95 172.309 95Z" fill="#0A1E63"/>
<rect x="0.5" y="0.5" width="199" height="199" rx="99.5" stroke="black"/>
</svg>
