<svg width="200" height="200" viewBox="0 0 200 200" fill="none" xmlns="http://www.w3.org/2000/svg">
<rect x="0.5" y="0.5" width="199" height="199" rx="99.5" fill="#F1D6DB"/>
<path d="M56.0068 93.76C56.1508 94 56.2228 94.232 56.2228 94.456C56.2228 94.744 56.1108 94.976 55.8868 95.152C55.6628 95.344 55.3988 95.44 55.0948 95.44C54.5828 95.44 54.1748 95.2 53.8708 94.72L52.4788 92.416C51.9668 91.6 51.1268 91.192 49.9588 91.192C48.3588 91.192 46.9668 90.84 45.7828 90.136C44.6148 89.432 43.7108 88.432 43.0708 87.136C42.4308 85.84 42.1108 84.312 42.1108 82.552C42.1108 80.776 42.4228 79.24 43.0468 77.944C43.6868 76.632 44.5988 75.632 45.7828 74.944C46.9668 74.24 48.3588 73.888 49.9588 73.888C51.5748 73.888 52.9748 74.24 54.1588 74.944C55.3428 75.632 56.2468 76.632 56.8708 77.944C57.5108 79.24 57.8308 80.768 57.8308 82.528C57.8308 84.496 57.4308 86.184 56.6308 87.592C55.8308 88.984 54.7028 89.976 53.2468 90.568C53.9348 90.792 54.5347 91.328 55.0468 92.176L56.0068 93.76ZM44.6308 82.528C44.6308 84.656 45.0948 86.296 46.0228 87.448C46.9668 88.6 48.2788 89.176 49.9588 89.176C51.6548 89.176 52.9748 88.6 53.9188 87.448C54.8628 86.296 55.3348 84.656 55.3348 82.528C55.3348 80.4 54.8628 78.768 53.9188 77.632C52.9908 76.48 51.6708 75.904 49.9588 75.904C48.2788 75.904 46.9668 76.48 46.0228 77.632C45.0948 78.768 44.6308 80.4 44.6308 82.528ZM69.9864 79.048C70.3544 79.048 70.6424 79.152 70.8504 79.36C71.0744 79.568 71.1864 79.856 71.1864 80.224V89.992C71.1864 90.328 71.0744 90.6 70.8504 90.808C70.6264 91.016 70.3304 91.12 69.9624 91.12C69.6264 91.12 69.3544 91.024 69.1464 90.832C68.9384 90.624 68.8344 90.352 68.8344 90.016V89.104C68.4664 89.776 67.9544 90.288 67.2984 90.64C66.6584 90.992 65.9384 91.168 65.1384 91.168C62.2904 91.168 60.8664 89.6 60.8664 86.464V80.224C60.8664 79.856 60.9704 79.568 61.1784 79.36C61.4024 79.152 61.7064 79.048 62.0904 79.048C62.4584 79.048 62.7464 79.152 62.9544 79.36C63.1784 79.568 63.2904 79.856 63.2904 80.224V86.44C63.2904 87.384 63.4824 88.08 63.8664 88.528C64.2504 88.976 64.8424 89.2 65.6424 89.2C66.5864 89.2 67.3384 88.896 67.8984 88.288C68.4744 87.68 68.7624 86.872 68.7624 85.864V80.224C68.7624 79.872 68.8744 79.592 69.0984 79.384C69.3224 79.16 69.6184 79.048 69.9864 79.048ZM79.4984 79C81.0504 79 82.2024 79.392 82.9544 80.176C83.7224 80.96 84.1064 82.152 84.1064 83.752V89.968C84.1064 90.336 84.0024 90.624 83.7944 90.832C83.5864 91.024 83.2984 91.12 82.9304 91.12C82.5784 91.12 82.2984 91.016 82.0904 90.808C81.8824 90.6 81.7784 90.32 81.7784 89.968V89.08C81.4744 89.752 81.0184 90.272 80.4104 90.64C79.8184 90.992 79.1224 91.168 78.3224 91.168C77.5544 91.168 76.8504 91.016 76.2104 90.712C75.5864 90.392 75.0904 89.96 74.7224 89.416C74.3544 88.872 74.1704 88.256 74.1704 87.568C74.1544 86.704 74.3704 86.032 74.8184 85.552C75.2664 85.056 75.9944 84.704 77.0024 84.496C78.0104 84.272 79.4104 84.16 81.2024 84.16H81.7544V83.464C81.7544 82.568 81.5704 81.92 81.2024 81.52C80.8344 81.12 80.2424 80.92 79.4264 80.92C78.8664 80.92 78.3384 80.992 77.8424 81.136C77.3464 81.28 76.8024 81.488 76.2104 81.76C75.7784 82 75.4744 82.12 75.2984 82.12C75.0584 82.12 74.8584 82.032 74.6984 81.856C74.5544 81.68 74.4824 81.456 74.4824 81.184C74.4824 80.944 74.5464 80.736 74.6744 80.56C74.8184 80.368 75.0424 80.184 75.3464 80.008C75.9064 79.704 76.5624 79.464 77.3144 79.288C78.0664 79.096 78.7944 79 79.4984 79ZM78.7544 89.368C79.6344 89.368 80.3544 89.072 80.9144 88.48C81.4744 87.872 81.7544 87.096 81.7544 86.152V85.528H81.3224C80.0744 85.528 79.1144 85.584 78.4424 85.696C77.7704 85.808 77.2904 86 77.0024 86.272C76.7144 86.528 76.5704 86.904 76.5704 87.4C76.5704 87.976 76.7784 88.448 77.1944 88.816C77.6104 89.184 78.1304 89.368 78.7544 89.368ZM88.6462 91.12C88.2942 91.12 87.9982 91.024 87.7582 90.832C87.5342 90.64 87.4222 90.352 87.4222 89.968V75.136C87.4222 74.752 87.5342 74.464 87.7582 74.272C87.9982 74.064 88.2942 73.96 88.6462 73.96C88.9982 73.96 89.2862 74.064 89.5102 74.272C89.7342 74.464 89.8462 74.752 89.8462 75.136V89.968C89.8462 90.352 89.7342 90.64 89.5102 90.832C89.2862 91.024 88.9982 91.12 88.6462 91.12ZM94.4587 91.12C94.1067 91.12 93.8107 91.024 93.5707 90.832C93.3467 90.64 93.2347 90.352 93.2347 89.968V80.224C93.2347 79.84 93.3467 79.552 93.5707 79.36C93.8107 79.152 94.1067 79.048 94.4587 79.048C94.8107 79.048 95.0987 79.152 95.3227 79.36C95.5467 79.552 95.6587 79.84 95.6587 80.224V89.968C95.6587 90.352 95.5467 90.64 95.3227 90.832C95.0987 91.024 94.8107 91.12 94.4587 91.12ZM94.4587 76.696C93.9947 76.696 93.6267 76.568 93.3547 76.312C93.0827 76.056 92.9467 75.72 92.9467 75.304C92.9467 74.888 93.0827 74.56 93.3547 74.32C93.6267 74.064 93.9947 73.936 94.4587 73.936C94.9067 73.936 95.2667 74.064 95.5387 74.32C95.8267 74.56 95.9707 74.888 95.9707 75.304C95.9707 75.72 95.8347 76.056 95.5627 76.312C95.2907 76.568 94.9227 76.696 94.4587 76.696ZM105.111 89.272C105.463 89.304 105.711 89.4 105.855 89.56C106.015 89.704 106.095 89.912 106.095 90.184C106.095 90.504 105.967 90.752 105.711 90.928C105.471 91.088 105.111 91.152 104.631 91.12L103.983 91.072C102.687 90.976 101.719 90.584 101.079 89.896C100.439 89.192 100.119 88.16 100.119 86.8V81.16H98.6793C97.9753 81.16 97.6233 80.848 97.6233 80.224C97.6233 79.936 97.7113 79.712 97.8873 79.552C98.0793 79.376 98.3433 79.288 98.6793 79.288H100.119V76.816C100.119 76.448 100.223 76.16 100.431 75.952C100.655 75.744 100.951 75.64 101.319 75.64C101.687 75.64 101.983 75.744 102.207 75.952C102.431 76.16 102.543 76.448 102.543 76.816V79.288H104.919C105.255 79.288 105.511 79.376 105.687 79.552C105.879 79.712 105.975 79.936 105.975 80.224C105.975 80.528 105.879 80.76 105.687 80.92C105.511 81.08 105.255 81.16 104.919 81.16H102.543V86.968C102.543 87.72 102.695 88.272 102.999 88.624C103.319 88.976 103.799 89.176 104.439 89.224L105.111 89.272ZM112.756 79C114.308 79 115.46 79.392 116.212 80.176C116.98 80.96 117.364 82.152 117.364 83.752V89.968C117.364 90.336 117.26 90.624 117.052 90.832C116.844 91.024 116.556 91.12 116.188 91.12C115.836 91.12 115.556 91.016 115.348 90.808C115.14 90.6 115.036 90.32 115.036 89.968V89.08C114.732 89.752 114.276 90.272 113.668 90.64C113.076 90.992 112.38 91.168 111.58 91.168C110.812 91.168 110.108 91.016 109.468 90.712C108.844 90.392 108.348 89.96 107.98 89.416C107.612 88.872 107.428 88.256 107.428 87.568C107.412 86.704 107.628 86.032 108.076 85.552C108.524 85.056 109.252 84.704 110.26 84.496C111.268 84.272 112.668 84.16 114.46 84.16H115.012V83.464C115.012 82.568 114.828 81.92 114.46 81.52C114.092 81.12 113.5 80.92 112.684 80.92C112.124 80.92 111.596 80.992 111.1 81.136C110.604 81.28 110.06 81.488 109.468 81.76C109.036 82 108.732 82.12 108.556 82.12C108.316 82.12 108.116 82.032 107.956 81.856C107.812 81.68 107.74 81.456 107.74 81.184C107.74 80.944 107.804 80.736 107.932 80.56C108.076 80.368 108.3 80.184 108.604 80.008C109.164 79.704 109.82 79.464 110.572 79.288C111.324 79.096 112.052 79 112.756 79ZM112.012 89.368C112.892 89.368 113.612 89.072 114.172 88.48C114.732 87.872 115.012 87.096 115.012 86.152V85.528H114.58C113.332 85.528 112.372 85.584 111.7 85.696C111.028 85.808 110.548 86 110.26 86.272C109.972 86.528 109.828 86.904 109.828 87.4C109.828 87.976 110.036 88.448 110.452 88.816C110.868 89.184 111.388 89.368 112.012 89.368ZM126.416 89.272C126.768 89.304 127.016 89.4 127.16 89.56C127.32 89.704 127.4 89.912 127.4 90.184C127.4 90.504 127.272 90.752 127.016 90.928C126.776 91.088 126.416 91.152 125.936 91.12L125.288 91.072C123.992 90.976 123.024 90.584 122.384 89.896C121.744 89.192 121.424 88.16 121.424 86.8V81.16H119.984C119.28 81.16 118.928 80.848 118.928 80.224C118.928 79.936 119.016 79.712 119.192 79.552C119.384 79.376 119.648 79.288 119.984 79.288H121.424V76.816C121.424 76.448 121.528 76.16 121.736 75.952C121.96 75.744 122.256 75.64 122.624 75.64C122.992 75.64 123.288 75.744 123.512 75.952C123.736 76.16 123.848 76.448 123.848 76.816V79.288H126.224C126.56 79.288 126.816 79.376 126.992 79.552C127.184 79.712 127.28 79.936 127.28 80.224C127.28 80.528 127.184 80.76 126.992 80.92C126.816 81.08 126.56 81.16 126.224 81.16H123.848V86.968C123.848 87.72 124 88.272 124.304 88.624C124.624 88.976 125.104 89.176 125.744 89.224L126.416 89.272ZM130.365 91.12C130.013 91.12 129.717 91.024 129.477 90.832C129.253 90.64 129.141 90.352 129.141 89.968V80.224C129.141 79.84 129.253 79.552 129.477 79.36C129.717 79.152 130.013 79.048 130.365 79.048C130.717 79.048 131.005 79.152 131.229 79.36C131.453 79.552 131.565 79.84 131.565 80.224V89.968C131.565 90.352 131.453 90.64 131.229 90.832C131.005 91.024 130.717 91.12 130.365 91.12ZM130.365 76.696C129.901 76.696 129.533 76.568 129.261 76.312C128.989 76.056 128.853 75.72 128.853 75.304C128.853 74.888 128.989 74.56 129.261 74.32C129.533 74.064 129.901 73.936 130.365 73.936C130.813 73.936 131.173 74.064 131.445 74.32C131.733 74.56 131.877 74.888 131.877 75.304C131.877 75.72 131.741 76.056 131.469 76.312C131.197 76.568 130.829 76.696 130.365 76.696ZM143.281 79.768C143.377 79.528 143.513 79.352 143.689 79.24C143.881 79.128 144.081 79.072 144.289 79.072C144.593 79.072 144.857 79.176 145.081 79.384C145.321 79.592 145.441 79.84 145.441 80.128C145.441 80.288 145.409 80.44 145.345 80.584L140.761 90.304C140.649 90.56 140.473 90.76 140.233 90.904C140.009 91.032 139.769 91.096 139.513 91.096C139.257 91.096 139.009 91.032 138.769 90.904C138.545 90.76 138.377 90.56 138.265 90.304L133.681 80.584C133.617 80.456 133.585 80.304 133.585 80.128C133.585 79.84 133.713 79.592 133.969 79.384C134.225 79.176 134.513 79.072 134.833 79.072C135.297 79.072 135.641 79.296 135.865 79.744L139.585 88L143.281 79.768ZM156.426 88.048C156.65 88.048 156.834 88.136 156.978 88.312C157.122 88.488 157.194 88.712 157.194 88.984C157.194 89.448 156.906 89.84 156.33 90.16C155.77 90.48 155.154 90.728 154.482 90.904C153.826 91.08 153.194 91.168 152.586 91.168C150.73 91.168 149.266 90.632 148.194 89.56C147.122 88.472 146.586 86.992 146.586 85.12C146.586 83.92 146.818 82.856 147.282 81.928C147.762 81 148.426 80.28 149.274 79.768C150.138 79.256 151.114 79 152.202 79C153.77 79 155.01 79.504 155.922 80.512C156.834 81.52 157.29 82.88 157.29 84.592C157.29 85.232 157.002 85.552 156.426 85.552H149.01C149.17 88.032 150.362 89.272 152.586 89.272C153.178 89.272 153.69 89.192 154.122 89.032C154.554 88.872 155.01 88.664 155.49 88.408C155.538 88.376 155.666 88.312 155.874 88.216C156.098 88.104 156.282 88.048 156.426 88.048ZM152.25 80.776C151.322 80.776 150.578 81.072 150.018 81.664C149.458 82.256 149.122 83.088 149.01 84.16H155.202C155.154 83.072 154.874 82.24 154.362 81.664C153.866 81.072 153.162 80.776 152.25 80.776ZM45.7858 124.12C45.4178 124.12 45.1218 124.008 44.8978 123.784C44.6738 123.56 44.5618 123.256 44.5618 122.872V108.208C44.5618 107.84 44.6738 107.544 44.8978 107.32C45.1218 107.08 45.4178 106.96 45.7858 106.96C46.1698 106.96 46.4738 107.072 46.6978 107.296C46.9218 107.52 47.0338 107.824 47.0338 108.208V122.872C47.0338 123.256 46.9218 123.56 46.6978 123.784C46.4898 124.008 46.1858 124.12 45.7858 124.12ZM56.9842 112C59.7842 112 61.1842 113.576 61.1842 116.728V122.968C61.1842 123.336 61.0722 123.624 60.8482 123.832C60.6402 124.024 60.3442 124.12 59.9602 124.12C59.5922 124.12 59.2962 124.016 59.0722 123.808C58.8642 123.6 58.7602 123.32 58.7602 122.968V116.848C58.7602 115.856 58.5602 115.128 58.1602 114.664C57.7762 114.2 57.1682 113.968 56.3362 113.968C55.3602 113.968 54.5762 114.272 53.9842 114.88C53.3922 115.488 53.0962 116.304 53.0962 117.328V122.968C53.0962 123.32 52.9842 123.6 52.7602 123.808C52.5522 124.016 52.2642 124.12 51.8962 124.12C51.5282 124.12 51.2322 124.016 51.0082 123.808C50.7842 123.6 50.6722 123.32 50.6722 122.968V113.2C50.6722 112.864 50.7842 112.592 51.0082 112.384C51.2482 112.16 51.5442 112.048 51.8962 112.048C52.2482 112.048 52.5282 112.152 52.7362 112.36C52.9442 112.568 53.0482 112.84 53.0482 113.176V114.16C53.4322 113.456 53.9682 112.92 54.6562 112.552C55.3442 112.184 56.1202 112 56.9842 112ZM70.2363 122.272C70.5883 122.304 70.8363 122.4 70.9803 122.56C71.1403 122.704 71.2203 122.912 71.2203 123.184C71.2203 123.504 71.0923 123.752 70.8363 123.928C70.5963 124.088 70.2363 124.152 69.7563 124.12L69.1083 124.072C67.8123 123.976 66.8443 123.584 66.2043 122.896C65.5643 122.192 65.2443 121.16 65.2443 119.8V114.16H63.8043C63.1003 114.16 62.7483 113.848 62.7483 113.224C62.7483 112.936 62.8363 112.712 63.0123 112.552C63.2043 112.376 63.4683 112.288 63.8043 112.288H65.2443V109.816C65.2443 109.448 65.3483 109.16 65.5563 108.952C65.7803 108.744 66.0763 108.64 66.4443 108.64C66.8123 108.64 67.1083 108.744 67.3323 108.952C67.5563 109.16 67.6683 109.448 67.6683 109.816V112.288H70.0443C70.3803 112.288 70.6363 112.376 70.8123 112.552C71.0043 112.712 71.1003 112.936 71.1003 113.224C71.1003 113.528 71.0043 113.76 70.8123 113.92C70.6363 114.08 70.3803 114.16 70.0443 114.16H67.6683V119.968C67.6683 120.72 67.8203 121.272 68.1243 121.624C68.4443 121.976 68.9243 122.176 69.5643 122.224L70.2363 122.272ZM82.1293 121.048C82.3533 121.048 82.5373 121.136 82.6813 121.312C82.8253 121.488 82.8973 121.712 82.8973 121.984C82.8973 122.448 82.6093 122.84 82.0333 123.16C81.4733 123.48 80.8573 123.728 80.1853 123.904C79.5293 124.08 78.8973 124.168 78.2893 124.168C76.4333 124.168 74.9693 123.632 73.8973 122.56C72.8253 121.472 72.2893 119.992 72.2893 118.12C72.2893 116.92 72.5213 115.856 72.9853 114.928C73.4653 114 74.1293 113.28 74.9773 112.768C75.8413 112.256 76.8173 112 77.9053 112C79.4733 112 80.7133 112.504 81.6253 113.512C82.5373 114.52 82.9933 115.88 82.9933 117.592C82.9933 118.232 82.7053 118.552 82.1293 118.552H74.7133C74.8733 121.032 76.0653 122.272 78.2893 122.272C78.8813 122.272 79.3933 122.192 79.8253 122.032C80.2573 121.872 80.7133 121.664 81.1933 121.408C81.2413 121.376 81.3693 121.312 81.5773 121.216C81.8013 121.104 81.9853 121.048 82.1293 121.048ZM77.9533 113.776C77.0253 113.776 76.2813 114.072 75.7213 114.664C75.1613 115.256 74.8253 116.088 74.7133 117.16H80.9053C80.8573 116.072 80.5773 115.24 80.0653 114.664C79.5693 114.072 78.8653 113.776 77.9533 113.776ZM91.8084 112.048C92.5764 112 92.9604 112.328 92.9604 113.032C92.9604 113.384 92.8724 113.648 92.6964 113.824C92.5204 114 92.2164 114.104 91.7844 114.136L91.0644 114.208C90.0564 114.304 89.3044 114.656 88.8084 115.264C88.3284 115.872 88.0884 116.608 88.0884 117.472V122.968C88.0884 123.352 87.9764 123.64 87.7524 123.832C87.5284 124.024 87.2404 124.12 86.8884 124.12C86.5364 124.12 86.2404 124.024 86.0004 123.832C85.7764 123.64 85.6644 123.352 85.6644 122.968V113.2C85.6644 112.832 85.7764 112.552 86.0004 112.36C86.2404 112.152 86.5364 112.048 86.8884 112.048C87.2084 112.048 87.4724 112.152 87.6804 112.36C87.9044 112.552 88.0164 112.824 88.0164 113.176V114.328C88.3364 113.624 88.8004 113.088 89.4084 112.72C90.0164 112.352 90.7044 112.136 91.4724 112.072L91.8084 112.048ZM103.508 112.768C103.604 112.528 103.74 112.352 103.916 112.24C104.108 112.128 104.308 112.072 104.516 112.072C104.82 112.072 105.084 112.176 105.308 112.384C105.548 112.592 105.668 112.84 105.668 113.128C105.668 113.288 105.636 113.44 105.572 113.584L100.988 123.304C100.876 123.56 100.7 123.76 100.46 123.904C100.236 124.032 99.996 124.096 99.74 124.096C99.484 124.096 99.236 124.032 98.996 123.904C98.772 123.76 98.604 123.56 98.492 123.304L93.908 113.584C93.844 113.456 93.812 113.304 93.812 113.128C93.812 112.84 93.94 112.592 94.196 112.384C94.452 112.176 94.74 112.072 95.06 112.072C95.524 112.072 95.868 112.296 96.092 112.744L99.812 121L103.508 112.768ZM109.224 124.12C108.872 124.12 108.576 124.024 108.336 123.832C108.112 123.64 108 123.352 108 122.968V113.224C108 112.84 108.112 112.552 108.336 112.36C108.576 112.152 108.872 112.048 109.224 112.048C109.576 112.048 109.864 112.152 110.088 112.36C110.312 112.552 110.424 112.84 110.424 113.224V122.968C110.424 123.352 110.312 123.64 110.088 123.832C109.864 124.024 109.576 124.12 109.224 124.12ZM109.224 109.696C108.76 109.696 108.392 109.568 108.12 109.312C107.848 109.056 107.712 108.72 107.712 108.304C107.712 107.888 107.848 107.56 108.12 107.32C108.392 107.064 108.76 106.936 109.224 106.936C109.672 106.936 110.032 107.064 110.304 107.32C110.592 107.56 110.736 107.888 110.736 108.304C110.736 108.72 110.6 109.056 110.328 109.312C110.056 109.568 109.688 109.696 109.224 109.696ZM122.981 121.048C123.205 121.048 123.389 121.136 123.533 121.312C123.677 121.488 123.749 121.712 123.749 121.984C123.749 122.448 123.461 122.84 122.885 123.16C122.325 123.48 121.709 123.728 121.037 123.904C120.381 124.08 119.749 124.168 119.141 124.168C117.285 124.168 115.821 123.632 114.749 122.56C113.677 121.472 113.141 119.992 113.141 118.12C113.141 116.92 113.373 115.856 113.837 114.928C114.317 114 114.981 113.28 115.829 112.768C116.693 112.256 117.669 112 118.757 112C120.325 112 121.565 112.504 122.477 113.512C123.389 114.52 123.845 115.88 123.845 117.592C123.845 118.232 123.557 118.552 122.981 118.552H115.565C115.725 121.032 116.917 122.272 119.141 122.272C119.733 122.272 120.245 122.192 120.677 122.032C121.109 121.872 121.565 121.664 122.045 121.408C122.093 121.376 122.221 121.312 122.429 121.216C122.653 121.104 122.837 121.048 122.981 121.048ZM118.805 113.776C117.877 113.776 117.133 114.072 116.573 114.664C116.013 115.256 115.677 116.088 115.565 117.16H121.757C121.709 116.072 121.429 115.24 120.917 114.664C120.421 114.072 119.717 113.776 118.805 113.776ZM142.288 112.792C142.464 112.312 142.792 112.072 143.272 112.072C143.576 112.072 143.848 112.176 144.088 112.384C144.328 112.592 144.448 112.848 144.448 113.152C144.448 113.312 144.416 113.456 144.352 113.584L140.368 123.304C140.272 123.56 140.112 123.76 139.888 123.904C139.664 124.032 139.416 124.096 139.144 124.096C138.888 124.096 138.648 124.032 138.424 123.904C138.2 123.76 138.04 123.56 137.944 123.304L134.824 115.6L131.776 123.304C131.68 123.56 131.52 123.76 131.296 123.904C131.088 124.032 130.848 124.096 130.576 124.096C130.32 124.096 130.072 124.032 129.832 123.904C129.608 123.76 129.44 123.56 129.328 123.304L125.368 113.584C125.304 113.456 125.272 113.32 125.272 113.176C125.272 112.856 125.4 112.592 125.656 112.384C125.928 112.176 126.224 112.072 126.544 112.072C127.024 112.072 127.352 112.304 127.528 112.768L130.624 120.952L133.792 112.84C133.888 112.584 134.04 112.392 134.248 112.264C134.456 112.136 134.68 112.072 134.92 112.072C135.144 112.072 135.36 112.136 135.568 112.264C135.776 112.392 135.928 112.584 136.024 112.84L139.192 120.904L142.288 112.792ZM150.588 124.168C148.956 124.168 147.62 123.832 146.58 123.16C146.292 122.984 146.084 122.8 145.956 122.608C145.844 122.416 145.788 122.2 145.788 121.96C145.788 121.704 145.86 121.488 146.004 121.312C146.148 121.136 146.332 121.048 146.556 121.048C146.764 121.048 147.092 121.176 147.54 121.432C148.02 121.688 148.484 121.896 148.932 122.056C149.396 122.216 149.972 122.296 150.66 122.296C151.428 122.296 152.028 122.16 152.46 121.888C152.892 121.616 153.108 121.232 153.108 120.736C153.108 120.416 153.02 120.16 152.844 119.968C152.684 119.776 152.396 119.608 151.98 119.464C151.564 119.304 150.948 119.136 150.132 118.96C148.724 118.656 147.708 118.248 147.084 117.736C146.476 117.208 146.172 116.496 146.172 115.6C146.172 114.912 146.372 114.296 146.772 113.752C147.172 113.192 147.724 112.76 148.428 112.456C149.132 112.152 149.932 112 150.828 112C151.468 112 152.092 112.088 152.7 112.264C153.308 112.424 153.844 112.664 154.308 112.984C154.836 113.336 155.1 113.744 155.1 114.208C155.1 114.464 155.02 114.68 154.86 114.856C154.716 115.032 154.54 115.12 154.332 115.12C154.188 115.12 154.044 115.088 153.9 115.024C153.756 114.96 153.564 114.856 153.324 114.712C152.892 114.456 152.484 114.256 152.1 114.112C151.732 113.968 151.268 113.896 150.708 113.896C150.036 113.896 149.492 114.04 149.076 114.328C148.676 114.616 148.476 115.008 148.476 115.504C148.476 115.952 148.66 116.304 149.028 116.56C149.412 116.8 150.124 117.032 151.164 117.256C152.236 117.48 153.076 117.736 153.684 118.024C154.292 118.312 154.724 118.672 154.98 119.104C155.252 119.52 155.388 120.056 155.388 120.712C155.388 121.752 154.948 122.592 154.068 123.232C153.204 123.856 152.044 124.168 150.588 124.168Z" fill="#0A1E63"/>
<rect x="0.5" y="0.5" width="199" height="199" rx="99.5" stroke="black"/>
</svg>
