<svg width="200" height="200" viewBox="0 0 200 200" fill="none" xmlns="http://www.w3.org/2000/svg">
<rect x="0.5" y="0.5" width="199" height="199" rx="99.5" fill="#0A1E63"/>
<path d="M31.5485 107.192C29.2925 107.192 27.5805 106.608 26.4125 105.44C25.2445 104.272 24.6605 102.552 24.6605 100.28V91.208C24.6605 90.824 24.7725 90.52 24.9965 90.296C25.2205 90.072 25.5165 89.96 25.8845 89.96C26.2525 89.96 26.5485 90.072 26.7725 90.296C26.9965 90.52 27.1085 90.824 27.1085 91.208V100.448C27.1085 102 27.4765 103.176 28.2125 103.976C28.9645 104.776 30.0765 105.176 31.5485 105.176C33.0045 105.176 34.1085 104.776 34.8605 103.976C35.6125 103.176 35.9885 102 35.9885 100.448V91.208C35.9885 90.84 36.1005 90.544 36.3245 90.32C36.5485 90.08 36.8445 89.96 37.2125 89.96C37.5805 89.96 37.8765 90.072 38.1005 90.296C38.3245 90.52 38.4365 90.824 38.4365 91.208V100.28C38.4365 102.536 37.8445 104.256 36.6605 105.44C35.4925 106.608 33.7885 107.192 31.5485 107.192ZM46.0334 107.168C44.4014 107.168 43.0654 106.832 42.0254 106.16C41.7374 105.984 41.5294 105.8 41.4014 105.608C41.2894 105.416 41.2334 105.2 41.2334 104.96C41.2334 104.704 41.3054 104.488 41.4494 104.312C41.5934 104.136 41.7774 104.048 42.0014 104.048C42.2094 104.048 42.5374 104.176 42.9854 104.432C43.4654 104.688 43.9294 104.896 44.3774 105.056C44.8414 105.216 45.4174 105.296 46.1054 105.296C46.8734 105.296 47.4734 105.16 47.9054 104.888C48.3374 104.616 48.5534 104.232 48.5534 103.736C48.5534 103.416 48.4654 103.16 48.2894 102.968C48.1294 102.776 47.8414 102.608 47.4254 102.464C47.0094 102.304 46.3934 102.136 45.5774 101.96C44.1694 101.656 43.1534 101.248 42.5294 100.736C41.9214 100.208 41.6174 99.496 41.6174 98.6C41.6174 97.912 41.8174 97.296 42.2174 96.752C42.6174 96.192 43.1694 95.76 43.8734 95.456C44.5774 95.152 45.3774 95 46.2734 95C46.9134 95 47.5374 95.088 48.1454 95.264C48.7534 95.424 49.2894 95.664 49.7534 95.984C50.2814 96.336 50.5454 96.744 50.5454 97.208C50.5454 97.464 50.4654 97.68 50.3054 97.856C50.1614 98.032 49.9854 98.12 49.7774 98.12C49.6334 98.12 49.4894 98.088 49.3454 98.024C49.2014 97.96 49.0094 97.856 48.7694 97.712C48.3374 97.456 47.9294 97.256 47.5454 97.112C47.1774 96.968 46.7134 96.896 46.1534 96.896C45.4814 96.896 44.9374 97.04 44.5214 97.328C44.1214 97.616 43.9214 98.008 43.9214 98.504C43.9214 98.952 44.1054 99.304 44.4734 99.56C44.8574 99.8 45.5694 100.032 46.6094 100.256C47.6814 100.48 48.5214 100.736 49.1294 101.024C49.7374 101.312 50.1694 101.672 50.4254 102.104C50.6974 102.52 50.8334 103.056 50.8334 103.712C50.8334 104.752 50.3934 105.592 49.5134 106.232C48.6494 106.856 47.4894 107.168 46.0334 107.168ZM62.6996 104.048C62.9236 104.048 63.1076 104.136 63.2516 104.312C63.3956 104.488 63.4676 104.712 63.4676 104.984C63.4676 105.448 63.1796 105.84 62.6036 106.16C62.0436 106.48 61.4276 106.728 60.7556 106.904C60.0996 107.08 59.4676 107.168 58.8596 107.168C57.0036 107.168 55.5396 106.632 54.4676 105.56C53.3956 104.472 52.8596 102.992 52.8596 101.12C52.8596 99.92 53.0916 98.856 53.5556 97.928C54.0356 97 54.6996 96.28 55.5476 95.768C56.4116 95.256 57.3876 95 58.4756 95C60.0436 95 61.2836 95.504 62.1956 96.512C63.1076 97.52 63.5636 98.88 63.5636 100.592C63.5636 101.232 63.2756 101.552 62.6996 101.552H55.2836C55.4436 104.032 56.6356 105.272 58.8596 105.272C59.4516 105.272 59.9636 105.192 60.3956 105.032C60.8276 104.872 61.2836 104.664 61.7636 104.408C61.8116 104.376 61.9396 104.312 62.1476 104.216C62.3716 104.104 62.5556 104.048 62.6996 104.048ZM58.5236 96.776C57.5956 96.776 56.8516 97.072 56.2916 97.664C55.7316 98.256 55.3956 99.088 55.2836 100.16H61.4756C61.4276 99.072 61.1476 98.24 60.6356 97.664C60.1396 97.072 59.4356 96.776 58.5236 96.776ZM72.3787 95.048C73.1467 95 73.5307 95.328 73.5307 96.032C73.5307 96.384 73.4427 96.648 73.2667 96.824C73.0907 97 72.7867 97.104 72.3547 97.136L71.6347 97.208C70.6267 97.304 69.8747 97.656 69.3787 98.264C68.8987 98.872 68.6587 99.608 68.6587 100.472V105.968C68.6587 106.352 68.5467 106.64 68.3227 106.832C68.0987 107.024 67.8107 107.12 67.4587 107.12C67.1067 107.12 66.8107 107.024 66.5707 106.832C66.3467 106.64 66.2347 106.352 66.2347 105.968V96.2C66.2347 95.832 66.3467 95.552 66.5707 95.36C66.8107 95.152 67.1067 95.048 67.4587 95.048C67.7787 95.048 68.0427 95.152 68.2507 95.36C68.4747 95.552 68.5867 95.824 68.5867 96.176V97.328C68.9067 96.624 69.3707 96.088 69.9787 95.72C70.5867 95.352 71.2747 95.136 72.0427 95.072L72.3787 95.048ZM82.8639 107C82.4799 107 82.1759 106.896 81.9519 106.688C81.7439 106.464 81.6399 106.168 81.6399 105.8V91.28C81.6399 90.912 81.7439 90.624 81.9519 90.416C82.1759 90.192 82.4799 90.08 82.8639 90.08H91.6959C92.0639 90.08 92.3439 90.168 92.5359 90.344C92.7439 90.52 92.8479 90.768 92.8479 91.088C92.8479 91.408 92.7439 91.656 92.5359 91.832C92.3439 91.992 92.0639 92.072 91.6959 92.072H84.0639V97.4H91.2159C91.5839 97.4 91.8639 97.488 92.0559 97.664C92.2639 97.84 92.3679 98.088 92.3679 98.408C92.3679 98.728 92.2639 98.976 92.0559 99.152C91.8639 99.328 91.5839 99.416 91.2159 99.416H84.0639V105.008H91.6959C92.4639 105.008 92.8479 105.336 92.8479 105.992C92.8479 106.312 92.7439 106.56 92.5359 106.736C92.3439 106.912 92.0639 107 91.6959 107H82.8639ZM108.831 95C111.455 95 112.767 96.576 112.767 99.728V105.968C112.767 106.336 112.655 106.624 112.431 106.832C112.207 107.024 111.911 107.12 111.543 107.12C111.191 107.12 110.903 107.024 110.679 106.832C110.455 106.624 110.343 106.336 110.343 105.968V99.752C110.343 98.776 110.167 98.072 109.815 97.64C109.463 97.192 108.911 96.968 108.159 96.968C107.279 96.968 106.583 97.272 106.071 97.88C105.559 98.472 105.303 99.288 105.303 100.328V105.968C105.303 106.336 105.191 106.624 104.967 106.832C104.743 107.024 104.447 107.12 104.079 107.12C103.727 107.12 103.439 107.024 103.215 106.832C102.991 106.624 102.879 106.336 102.879 105.968V99.752C102.879 98.776 102.703 98.072 102.351 97.64C101.999 97.192 101.447 96.968 100.695 96.968C99.8149 96.968 99.1109 97.272 98.5829 97.88C98.0709 98.472 97.8149 99.288 97.8149 100.328V105.968C97.8149 106.336 97.7029 106.624 97.4789 106.832C97.2549 107.024 96.9669 107.12 96.6149 107.12C96.2629 107.12 95.9669 107.024 95.7269 106.832C95.5029 106.624 95.3909 106.336 95.3909 105.968V96.2C95.3909 95.848 95.5109 95.568 95.7509 95.36C95.9909 95.152 96.2789 95.048 96.6149 95.048C96.9509 95.048 97.2229 95.152 97.4309 95.36C97.6549 95.552 97.7669 95.824 97.7669 96.176V97.064C98.1189 96.392 98.6069 95.88 99.2309 95.528C99.8549 95.176 100.575 95 101.391 95C102.287 95 103.023 95.184 103.599 95.552C104.191 95.92 104.631 96.488 104.919 97.256C105.271 96.568 105.791 96.024 106.479 95.624C107.167 95.208 107.951 95 108.831 95ZM122.374 95C123.382 95 124.278 95.256 125.062 95.768C125.862 96.28 126.478 97 126.91 97.928C127.358 98.856 127.582 99.928 127.582 101.144C127.582 102.344 127.366 103.4 126.934 104.312C126.502 105.224 125.886 105.928 125.086 106.424C124.302 106.92 123.398 107.168 122.374 107.168C121.494 107.168 120.718 106.984 120.046 106.616C119.374 106.232 118.862 105.688 118.51 104.984V110.336C118.51 110.672 118.398 110.936 118.174 111.128C117.966 111.336 117.686 111.44 117.334 111.44C116.966 111.44 116.662 111.336 116.422 111.128C116.198 110.92 116.086 110.64 116.086 110.288V96.224C116.086 95.872 116.198 95.592 116.422 95.384C116.646 95.16 116.942 95.048 117.31 95.048C117.662 95.048 117.95 95.16 118.174 95.384C118.398 95.592 118.51 95.872 118.51 96.224V97.208C118.862 96.504 119.374 95.96 120.046 95.576C120.718 95.192 121.494 95 122.374 95ZM121.798 105.248C122.854 105.248 123.67 104.896 124.246 104.192C124.822 103.472 125.11 102.456 125.11 101.144C125.11 99.816 124.814 98.784 124.222 98.048C123.646 97.312 122.838 96.944 121.798 96.944C120.742 96.944 119.926 97.304 119.35 98.024C118.79 98.744 118.51 99.768 118.51 101.096C118.51 102.424 118.79 103.448 119.35 104.168C119.926 104.888 120.742 105.248 121.798 105.248ZM135.186 95C136.738 95 137.89 95.392 138.642 96.176C139.41 96.96 139.794 98.152 139.794 99.752V105.968C139.794 106.336 139.69 106.624 139.482 106.832C139.274 107.024 138.986 107.12 138.618 107.12C138.266 107.12 137.986 107.016 137.778 106.808C137.57 106.6 137.466 106.32 137.466 105.968V105.08C137.162 105.752 136.706 106.272 136.098 106.64C135.506 106.992 134.81 107.168 134.01 107.168C133.242 107.168 132.538 107.016 131.898 106.712C131.274 106.392 130.778 105.96 130.41 105.416C130.042 104.872 129.858 104.256 129.858 103.568C129.842 102.704 130.058 102.032 130.506 101.552C130.954 101.056 131.682 100.704 132.69 100.496C133.698 100.272 135.098 100.16 136.89 100.16H137.442V99.464C137.442 98.568 137.258 97.92 136.89 97.52C136.522 97.12 135.93 96.92 135.114 96.92C134.554 96.92 134.026 96.992 133.53 97.136C133.034 97.28 132.49 97.488 131.898 97.76C131.466 98 131.162 98.12 130.986 98.12C130.746 98.12 130.546 98.032 130.386 97.856C130.242 97.68 130.17 97.456 130.17 97.184C130.17 96.944 130.234 96.736 130.362 96.56C130.506 96.368 130.73 96.184 131.034 96.008C131.594 95.704 132.25 95.464 133.002 95.288C133.754 95.096 134.482 95 135.186 95ZM134.442 105.368C135.322 105.368 136.042 105.072 136.602 104.48C137.162 103.872 137.442 103.096 137.442 102.152V101.528H137.01C135.762 101.528 134.802 101.584 134.13 101.696C133.458 101.808 132.978 102 132.69 102.272C132.402 102.528 132.258 102.904 132.258 103.4C132.258 103.976 132.466 104.448 132.882 104.816C133.298 105.184 133.818 105.368 134.442 105.368ZM148.846 105.272C149.198 105.304 149.446 105.4 149.59 105.56C149.75 105.704 149.83 105.912 149.83 106.184C149.83 106.504 149.702 106.752 149.446 106.928C149.206 107.088 148.846 107.152 148.366 107.12L147.718 107.072C146.422 106.976 145.454 106.584 144.814 105.896C144.174 105.192 143.854 104.16 143.854 102.8V97.16H142.414C141.71 97.16 141.358 96.848 141.358 96.224C141.358 95.936 141.446 95.712 141.622 95.552C141.814 95.376 142.078 95.288 142.414 95.288H143.854V92.816C143.854 92.448 143.958 92.16 144.166 91.952C144.39 91.744 144.686 91.64 145.054 91.64C145.422 91.64 145.718 91.744 145.942 91.952C146.166 92.16 146.278 92.448 146.278 92.816V95.288H148.654C148.99 95.288 149.246 95.376 149.422 95.552C149.614 95.712 149.71 95.936 149.71 96.224C149.71 96.528 149.614 96.76 149.422 96.92C149.246 97.08 148.99 97.16 148.654 97.16H146.278V102.968C146.278 103.72 146.43 104.272 146.734 104.624C147.054 104.976 147.534 105.176 148.174 105.224L148.846 105.272ZM157.907 95C160.691 95 162.083 96.576 162.083 99.728V105.968C162.083 106.32 161.971 106.6 161.747 106.808C161.523 107.016 161.227 107.12 160.859 107.12C160.491 107.12 160.195 107.016 159.971 106.808C159.763 106.6 159.659 106.32 159.659 105.968V99.752C159.659 98.792 159.459 98.088 159.059 97.64C158.675 97.192 158.067 96.968 157.235 96.968C156.259 96.968 155.475 97.272 154.883 97.88C154.291 98.488 153.995 99.304 153.995 100.328V105.968C153.995 106.32 153.883 106.6 153.659 106.808C153.451 107.016 153.163 107.12 152.795 107.12C152.427 107.12 152.131 107.016 151.907 106.808C151.683 106.6 151.571 106.32 151.571 105.968V91.112C151.571 90.76 151.683 90.48 151.907 90.272C152.147 90.064 152.451 89.96 152.819 89.96C153.171 89.96 153.451 90.064 153.659 90.272C153.883 90.464 153.995 90.728 153.995 91.064V97.064C154.395 96.392 154.931 95.88 155.603 95.528C156.275 95.176 157.043 95 157.907 95ZM173.727 95.768C173.823 95.528 173.959 95.352 174.135 95.24C174.327 95.128 174.527 95.072 174.735 95.072C175.039 95.072 175.303 95.176 175.527 95.384C175.767 95.592 175.887 95.84 175.887 96.128C175.887 96.288 175.855 96.44 175.791 96.584L169.119 110.744C169.023 110.968 168.879 111.136 168.687 111.248C168.511 111.376 168.319 111.44 168.111 111.44C167.823 111.44 167.559 111.344 167.319 111.152C167.095 110.96 166.983 110.72 166.983 110.432C166.983 110.304 167.023 110.144 167.103 109.952L168.759 106.424L164.127 96.584C164.063 96.456 164.031 96.312 164.031 96.152C164.031 95.848 164.159 95.592 164.415 95.384C164.671 95.176 164.959 95.072 165.279 95.072C165.759 95.072 166.103 95.296 166.311 95.744L170.031 104L173.727 95.768Z" fill="white"/>
<rect x="0.5" y="0.5" width="199" height="199" rx="99.5" stroke="black"/>
</svg>
